<svg width="30" height="26" viewBox="0 0 30 26" fill="none" xmlns="http://www.w3.org/2000/svg">
<path d="M19.8885 0.135742H10.1117C8.52191 0.135742 7.22852 1.42914 7.22852 3.01891V6.96309H9.24285V3.01897C9.24285 2.5399 9.63262 2.15014 10.1117 2.15014H19.8885C20.3676 2.15014 20.7574 2.5399 20.7574 3.01897V6.96315H22.7717V3.01897C22.7717 1.42914 21.4783 0.135742 19.8885 0.135742Z" fill="#5E6377"/>
<path d="M11.319 0.135742H10.1117C8.52191 0.135742 7.22852 1.42914 7.22852 3.01891V6.96309H8.43584V3.01897C8.43584 1.42914 9.72924 0.135742 11.319 0.135742Z" fill="#505668"/>
<path d="M21.096 2.15039H19.8887C20.3678 2.15039 20.7576 2.54016 20.7576 3.01922V6.9634H21.9649V3.01922C21.9649 2.54016 21.5751 2.15039 21.096 2.15039Z" fill="#505668"/>
<path d="M28.8097 4.31152H26.5932C26.2419 4.31152 25.9085 4.46674 25.6823 4.73563L24.3179 6.35785C24.1586 6.54723 23.946 6.67988 23.7115 6.74199V8.21322C23.7115 8.38045 23.576 8.51598 23.4088 8.51598H20.0404C19.8731 8.51598 19.7375 8.38045 19.7375 8.21322V6.78201C16.9272 6.78201 13.0727 6.78201 10.2625 6.78201V8.21322C10.2625 8.38045 10.1269 8.51598 9.95971 8.51598H6.59127C6.42404 8.51598 6.28846 8.38045 6.28846 8.21322V6.74205C6.05396 6.67994 5.84139 6.54729 5.68213 6.35791L4.31772 4.73568C4.09154 4.4668 3.75814 4.31158 3.40682 4.31158H1.19021C0.53291 4.31152 0 4.84438 0 5.5018V24.6738C0 25.3312 0.53291 25.8641 1.19027 25.8641C1.56434 25.8641 28.2689 25.8641 28.8097 25.8641C29.4671 25.8641 30 25.3312 30 24.6738V5.5018C29.9999 4.84438 29.4671 4.31152 28.8097 4.31152Z" fill="#E4EAF8"/>
<path d="M1.20732 24.6737V5.5018C1.20732 4.84443 1.74023 4.31152 2.3976 4.31152H1.19027C0.53291 4.31152 0 4.84438 0 5.5018V24.6738C0 25.3312 0.53291 25.8641 1.19027 25.8641C1.23568 25.8641 1.67004 25.8641 2.3976 25.8641C1.74023 25.864 1.20732 25.3311 1.20732 24.6737Z" fill="#D8DCE5"/>
<path d="M14.9998 22.735C18.5782 22.735 21.4791 19.8341 21.4791 16.2557C21.4791 12.6772 18.5782 9.77637 14.9998 9.77637C11.4214 9.77637 8.52051 12.6772 8.52051 16.2557C8.52051 19.8341 11.4214 22.735 14.9998 22.735Z" fill="#FF5050"/>
<path d="M17.922 15.2486H16.1288C16.0616 15.2486 16.0071 15.1941 16.0071 15.1269V13.3337C16.0071 13.2664 15.9526 13.2119 15.8854 13.2119H14.1145C14.0473 13.2119 13.9927 13.2664 13.9927 13.3337V15.1269C13.9927 15.1941 13.9382 15.2486 13.871 15.2486H12.0778C12.0106 15.2486 11.9561 15.3031 11.9561 15.3704V17.1413C11.9561 17.2085 12.0105 17.263 12.0778 17.263H13.871C13.9382 17.263 13.9927 17.3175 13.9927 17.3848V19.178C13.9927 19.2453 14.0472 19.2997 14.1145 19.2997H15.8854C15.9526 19.2997 16.0071 19.2453 16.0071 19.178V17.3848C16.0071 17.3175 16.0615 17.263 16.1288 17.263H17.922C17.9892 17.263 18.0437 17.2085 18.0437 17.1413V15.3704C18.0438 15.3031 17.9893 15.2486 17.922 15.2486Z" fill="#E4EAF8"/>
<path d="M9.72777 16.2559C9.72777 12.881 12.3082 10.1092 15.6036 9.80461C15.4048 9.78621 15.2035 9.77637 15 9.77637C11.4215 9.77637 8.52051 12.6773 8.52051 16.2558C8.52051 19.8344 11.4215 22.7353 15 22.7353C15.2036 22.7353 15.4049 22.7255 15.6036 22.7071C12.3082 22.4027 9.72777 19.6308 9.72777 16.2559Z" fill="#F24040"/>
<path d="M15.2001 15.1269V13.3337C15.2001 13.2664 15.2546 13.2119 15.3219 13.2119H14.1146C14.0473 13.2119 13.9928 13.2664 13.9928 13.3337V15.1269C13.9928 15.1941 13.9383 15.2486 13.8711 15.2486H15.0784C15.1456 15.2486 15.2001 15.1941 15.2001 15.1269Z" fill="#D8DCE5"/>
<path d="M15.2001 19.1777V17.3845C15.2001 17.3172 15.1456 17.2627 15.0784 17.2627H13.8711C13.9383 17.2627 13.9928 17.3172 13.9928 17.3845V19.1777C13.9928 19.2449 14.0473 19.2994 14.1146 19.2994H15.3219C15.2547 19.2994 15.2001 19.2449 15.2001 19.1777Z" fill="#D8DCE5"/>
<path d="M13.1634 17.1417V15.3708C13.1634 15.3035 13.2179 15.249 13.2851 15.249H12.0778C12.0106 15.249 11.9561 15.3035 11.9561 15.3708V17.1417C11.9561 17.2089 12.0105 17.2634 12.0778 17.2634H13.2851C13.2179 17.2634 13.1634 17.2089 13.1634 17.1417Z" fill="#D8DCE5"/>
<path d="M20.0406 8.6976H23.409C23.5763 8.6976 23.7118 8.56207 23.7118 8.39484V6.74121C23.6132 6.7674 23.5113 6.78252 23.4072 6.78252C23.2672 6.78252 21.7776 6.78252 19.7378 6.78252V8.39484C19.7378 8.56207 19.8734 8.6976 20.0406 8.6976Z" fill="#707487"/>
<path d="M6.59133 8.6976H9.95977C10.127 8.6976 10.2626 8.56207 10.2626 8.39484V6.78252C8.21654 6.78252 6.72486 6.78252 6.59314 6.78252C6.48914 6.78252 6.38713 6.76734 6.28857 6.74121V8.39484C6.28857 8.56207 6.4241 8.6976 6.59133 8.6976Z" fill="#707487"/>
<path d="M20.9451 8.39455V6.78223C20.5719 6.78223 20.1672 6.78223 19.7378 6.78223V8.39455C19.7378 8.56178 19.8734 8.6973 20.0406 8.6973H21.2479C21.0807 8.69736 20.9451 8.56184 20.9451 8.39455Z" fill="#5E6377"/>
<path d="M7.4959 8.39484V6.78252C6.97576 6.78252 6.65139 6.78252 6.59314 6.78252C6.48908 6.78252 6.38713 6.76734 6.28857 6.74121V8.39484C6.28857 8.56207 6.42416 8.6976 6.59139 8.6976H7.79871C7.63143 8.69766 7.4959 8.56213 7.4959 8.39484Z" fill="#5E6377"/>
</svg>
