<svg width="38" height="24" viewBox="0 0 38 24" fill="none" xmlns="http://www.w3.org/2000/svg">
<path d="M33.1325 18.8084C27.1193 24.8216 17.3692 24.8216 11.356 18.8084L22.2441 0.527344L33.1325 18.8084Z" fill="#F94848"/>
<path d="M33.1326 18.8086H38C34.3743 22.4351 26.0789 24.0418 21.3721 23.2925C25.5983 23.5324 29.904 22.0372 33.1326 18.8086Z" fill="#23B75F"/>
<path d="M35.9382 15.3457L38.0002 18.8083H33.1328L31.0708 15.3457H35.9382Z" fill="#C7F492"/>
<path d="M27.1129 0.527344L35.9378 15.3458H31.0704L22.2446 0.527344H27.1129Z" fill="#F97D7D"/>
<path d="M33.1326 18.8083C27.1197 24.8211 17.3697 24.8211 11.356 18.8083L13.4188 15.3457C18.293 20.2199 26.1964 20.2199 31.0705 15.3457L33.1326 18.8083Z" fill="#A3E261"/>
<path d="M21.7765 18.8084C15.7633 24.8216 6.0132 24.8216 0 18.8084L10.8883 0.527344L21.7765 18.8084Z" fill="#F94848"/>
<path d="M21.7766 18.8086H26.644C23.0183 22.4351 14.723 24.0418 10.0161 23.2925C14.2424 23.5324 18.548 22.0372 21.7766 18.8086Z" fill="#23B75F"/>
<path d="M24.5823 15.3457L26.6443 18.8083H21.7769L19.7148 15.3457H24.5823Z" fill="#C7F492"/>
<path d="M15.7575 0.527344L24.5824 15.3458H19.715L10.8892 0.527344H15.7575Z" fill="#F97D7D"/>
<path d="M21.7766 18.8083C15.7638 24.8212 6.01372 24.8212 0 18.8083L2.06284 15.3457C6.937 20.2199 14.8404 20.2199 19.7146 15.3457L21.7766 18.8083Z" fill="#A3E261"/>
<path d="M8.86103 10.3583C8.2917 10.3583 8.01509 9.6299 8.44036 9.25138C8.64461 9.06969 8.95218 9.04112 9.18685 9.1811C9.40461 9.31091 9.52425 9.56696 9.48781 9.81745C9.44321 10.1242 9.17053 10.3583 8.86103 10.3583Z" fill="#4D4D4D"/>
<path d="M12.8355 12.7305C12.2757 12.7305 11.9937 12.024 12.3989 11.6379C12.6027 11.4437 12.9196 11.4092 13.1609 11.5534C13.388 11.6892 13.5084 11.9607 13.4563 12.2204C13.3978 12.5126 13.1349 12.7305 12.8355 12.7305Z" fill="#4D4D4D"/>
<path d="M26.1666 14.2854C25.9079 14.2854 25.6695 14.1203 25.5764 13.8796C25.4769 13.6223 25.5598 13.3216 25.7775 13.1522C26.2023 12.8213 26.8376 13.1609 26.7984 13.6984C26.7744 14.0243 26.4938 14.2854 26.1666 14.2854Z" fill="#4D4D4D"/>
<path d="M30.0606 10.1022C29.4962 10.1022 29.2176 9.38595 29.6307 9.00365C30.0541 8.61177 30.7621 8.9747 30.689 9.54663C30.649 9.86028 30.3779 10.1022 30.0606 10.1022Z" fill="#4D4D4D"/>
<path d="M23.8594 8.08342C23.5991 8.08342 23.3625 7.91969 23.2683 7.67796C23.1655 7.41374 23.2579 7.10402 23.4866 6.93725C23.9555 6.59532 24.6166 7.04435 24.4733 7.60582C24.4026 7.88288 24.1461 8.08342 23.8594 8.08342Z" fill="#4D4D4D"/>
<path d="M18.2345 9.52555C17.6677 9.52555 17.3884 8.80295 17.8091 8.4231C18.0184 8.23414 18.3347 8.20727 18.573 8.35749C18.7924 8.49583 18.9064 8.76161 18.8554 9.01611C18.7969 9.30868 18.5336 9.52555 18.2345 9.52555Z" fill="#4D4D4D"/>
<path d="M9.95085 15.9997C9.68656 15.9997 9.44356 15.8278 9.35502 15.5792C9.2647 15.3255 9.34752 15.0356 9.55882 14.8686C10.0104 14.5118 10.6845 14.9235 10.5726 15.4894C10.5147 15.7824 10.2489 15.9997 9.95085 15.9997Z" fill="#4D4D4D"/>
</svg>
