<svg width="28" height="26" viewBox="0 0 28 26" fill="none" xmlns="http://www.w3.org/2000/svg">
<path d="M26.4251 15.5041C26.4251 16.0101 26.2202 16.4678 25.8889 16.7991C25.5571 17.1304 25.0994 17.3353 24.5939 17.3353H3.40641C2.39545 17.3353 1.5752 16.5156 1.5752 15.5041C1.5752 15.2331 1.63382 14.9764 1.73915 14.7453C1.8308 14.5444 1.95719 14.3633 2.11141 14.2091C2.44325 13.8778 2.90093 13.6729 3.40641 13.6729H24.594C25.3346 13.6729 25.9727 14.1123 26.2612 14.7453C26.3665 14.9764 26.4251 15.2331 26.4251 15.5041Z" fill="#884D00"/>
<path d="M26.2609 14.7452C26.1692 14.9456 26.0423 15.1272 25.8886 15.2809C25.5568 15.6122 25.0991 15.8171 24.5936 15.8171H3.40603C2.66605 15.8171 2.02796 15.3777 1.73877 14.7453C1.83043 14.5444 1.95675 14.3633 2.11103 14.2091C2.44287 13.8778 2.90055 13.6729 3.40603 13.6729H24.5936C25.3341 13.6728 25.9722 14.1123 26.2609 14.7452Z" fill="#AA6100"/>
<path d="M28 18.8139C28 21.1733 26.9077 22.9265 25.1419 24.0894C23.3756 25.2529 20.936 25.8261 18.2412 25.8261H9.75871C4.36937 25.8261 0 23.5327 0 18.8139C0 18.5509 0.0654609 18.3015 0.183859 18.0773C0.284047 17.886 0.422352 17.7135 0.590297 17.5667C0.954625 17.2473 1.45895 17.0498 2.01507 17.0498H25.985C26.7973 17.0498 27.4974 17.471 27.8162 18.0773C27.9345 18.3016 28 18.5509 28 18.8139Z" fill="#FFA733"/>
<path d="M27.8164 18.0773C27.4361 19.6483 26.4832 20.8721 25.1421 21.7556C23.3758 22.919 20.9362 23.4923 18.2415 23.4923H9.75893C5.01731 23.4923 1.06581 21.7174 0.184082 18.0773C0.28427 17.886 0.422574 17.7135 0.59052 17.5667C0.954848 17.2473 1.45918 17.0498 2.01529 17.0498H25.9852C26.7975 17.0498 27.4976 17.4711 27.8164 18.0773Z" fill="#FFB655"/>
<path d="M21.787 12.9043L17.0499 17.6414C16.931 17.7598 16.804 17.8645 16.6697 17.955C15.6667 18.6341 14.2926 18.5299 13.4041 17.6414L8.66699 12.9043H21.787Z" fill="#EEBF00"/>
<path d="M21.7868 12.9043L17.0497 17.6414C16.9308 17.7598 16.8038 17.8645 16.6695 17.955C16.3081 17.8321 15.9688 17.6266 15.6808 17.338L11.2471 12.9043H21.7868Z" fill="#FFD422"/>
<path d="M27.4682 13.5655C27.4682 13.8137 27.4272 14.0676 27.3384 14.3152C26.9906 15.2857 26.0593 15.6625 25.3336 15.1263L24.4632 14.4837C23.8559 14.0346 23.0812 14.2185 22.6417 14.9163L22.6047 14.9749C22.1829 15.6455 21.4474 15.8447 20.8469 15.4519L18.8979 14.1774C18.4482 13.8837 17.9092 13.9156 17.4834 14.2623L15.9215 15.5328C15.4729 15.8976 14.9015 15.913 14.4409 15.572L12.6593 14.2514C12.2039 13.9139 11.6392 13.9247 11.1924 14.2799L9.57015 15.5681C9.13467 15.9136 8.58708 15.9335 8.13684 15.621L6.03641 14.1615C5.62313 13.8746 5.12509 13.8666 4.70613 14.1405L2.7469 15.4218C1.44222 15.5897 0.807573 14.6317 0.807573 14.6317C0.495088 14.0887 0.463752 13.4449 0.632846 12.9047C0.833768 12.2592 1.32049 11.7617 1.95344 11.7617H26.0469C26.6673 11.7617 27.1631 12.2518 27.3669 12.9018C27.4329 13.1102 27.4682 13.335 27.4682 13.5655Z" fill="#6DC82A"/>
<path d="M27.3668 12.902C27.3583 12.9304 27.3486 12.9583 27.3384 12.9868C26.9906 13.9579 26.0594 14.3347 25.3336 13.7985L24.4633 13.1553C23.8559 12.7067 23.0812 12.8906 22.6417 13.5879L22.6047 13.6471C22.1829 14.3176 21.4475 14.5168 20.8469 14.1241L18.8979 12.8496C18.4482 12.5553 17.9092 12.5877 17.4834 12.9344L15.9215 14.2049C15.473 14.5698 14.9015 14.5846 14.441 14.2436L12.6593 12.923C12.2039 12.5855 11.6393 12.5969 11.1924 12.9514L9.57012 14.2402C9.13464 14.5851 8.58705 14.6056 8.13681 14.2931L6.03637 12.8336C5.6231 12.5462 5.12506 12.5382 4.7061 12.8125L2.74687 14.0933C1.44219 14.2618 0.807539 13.3032 0.807539 13.3032C0.734094 13.1751 0.67607 13.0414 0.632812 12.9047C0.833734 12.2593 1.32045 11.7617 1.95341 11.7617H26.0469C26.6672 11.7618 27.163 12.2519 27.3668 12.902Z" fill="#7ED63E"/>
<path d="M26.982 10.5896C26.986 10.7791 26.9609 10.9618 26.912 11.1343C26.6917 11.9016 25.9847 12.4629 25.1468 12.4629C21.8567 12.4629 13.0936 12.3889 11.7719 12.4327C11.7423 12.4339 11.7127 12.435 11.6837 12.4355C10.0147 12.4987 9.63447 12.7662 9.63447 13.656V16.9113C9.63447 17.0787 9.56671 17.2307 9.45689 17.3405C9.34703 17.4504 9.1956 17.5181 9.02825 17.5181C8.69297 17.5181 8.42144 17.7896 8.42144 18.1249V19.5428C8.42144 19.6868 8.40438 19.8263 8.37135 19.9607C8.1841 20.736 7.48448 21.3114 6.64432 21.3114H6.59936C5.64419 21.3114 4.87118 20.5356 4.87403 19.5804L4.88201 17.0138C4.88256 16.8169 4.96284 16.6381 5.09207 16.5095C5.22184 16.3803 5.40001 16.3006 5.59754 16.3006C5.99261 16.3006 6.31308 15.9801 6.31308 15.5851V13.656C6.31308 12.9968 5.77916 12.4629 5.12001 12.4629H2.88745C1.88279 12.4629 1.03748 11.67 1.01697 10.6653C0.996466 9.63445 1.8264 8.79199 2.85272 8.79199H25.1104C26.1156 8.79199 26.9621 9.58491 26.982 10.5896Z" fill="#FF3501"/>
<path d="M26.9822 10.5896C26.9862 10.7791 26.9611 10.9618 26.9122 11.1343C23.4291 11.1309 15.1065 11.062 13.8212 11.1041C12.0771 11.1616 11.6838 11.4229 11.6838 12.328V12.4355C10.0149 12.4987 9.63463 12.7662 9.63463 13.656V16.9113C9.63463 17.0787 9.56687 17.2307 9.45706 17.3405C9.34719 17.4504 9.19576 17.5181 9.02842 17.5181C8.69313 17.5181 8.42161 17.7896 8.42161 18.1249V19.5428C8.42161 19.6868 8.40454 19.8263 8.37151 19.9607C7.54841 19.828 6.92054 19.1125 6.92339 18.2518L6.93137 15.6858C6.93192 15.4883 7.0122 15.3101 7.14143 15.1815C7.2712 15.0522 7.44937 14.9726 7.6469 14.9726C8.04196 14.9726 8.36243 14.6521 8.36243 14.257V12.3279C8.36243 11.6688 7.82852 11.1349 7.16937 11.1349H4.93681C3.93214 11.1349 3.08684 10.3419 3.06633 9.33728C3.06234 9.14773 3.08739 8.96502 3.13693 8.79199H25.1106C26.1158 8.79199 26.9623 9.58491 26.9822 10.5896Z" fill="#FF5023"/>
<path d="M16.4814 6.92676L12.42 10.9899C12.013 11.3969 11.5331 11.6866 11.0219 11.8579C9.76166 12.2837 8.31359 11.994 7.31062 10.9899L3.24756 6.92676H16.4814Z" fill="#EEBF00"/>
<path d="M16.4815 6.92676L12.42 10.9899C12.0131 11.3969 11.5332 11.6866 11.022 11.8579C10.5114 11.6866 10.0316 11.3969 9.62513 10.9899L5.56201 6.92676H16.4815Z" fill="#FFD422"/>
<path d="M28 7.4975C28 7.52769 27.9989 7.55727 27.9972 7.58686C27.975 7.9688 27.811 8.31316 27.5571 8.56708C27.2833 8.8409 26.9054 9.00994 26.4876 9.00994H1.51244C0.677359 9.00988 0 8.33252 0 7.4975C0 5.6851 0.840164 4.32065 2.10897 3.29433C3.13868 2.461 4.45129 1.85019 5.82542 1.40225C9.66995 0.150562 14 0.173859 14 0.173859C14 0.173859 28 0.0981714 28 7.4975Z" fill="#FFA733"/>
<path d="M28 7.4975C28 7.52769 27.9988 7.55727 27.9971 7.58686H4.58617C3.75114 7.58686 3.07373 6.9095 3.07373 6.07442C3.07373 4.26202 3.91389 2.89757 5.1827 1.8713C5.38647 1.7062 5.60106 1.55029 5.82533 1.40225C9.66992 0.150562 14 0.173859 14 0.173859C14 0.173859 28 0.0981714 28 7.4975Z" fill="#FFB655"/>
<path d="M21.5252 2.8208C21.7679 3.07772 21.7564 3.48279 21.4996 3.7256C21.2426 3.96836 20.8376 3.95687 20.5948 3.70001C20.3521 3.44314 19.9052 2.55299 20.1621 2.31018C20.419 2.06737 21.2824 2.56382 21.5252 2.8208Z" fill="#FFF5CC"/>
<path d="M18.1325 5.98316C18.2592 6.31315 18.0944 6.68338 17.7645 6.81009C17.4345 6.9368 17.0642 6.77203 16.9375 6.44204C16.8108 6.11206 16.7364 5.11888 17.0663 4.99217C17.3963 4.86551 18.0058 5.65318 18.1325 5.98316Z" fill="#FFF5CC"/>
<path d="M14.6399 3.35125C14.6399 3.70475 14.3533 3.99126 13.9999 3.99126C13.6464 3.99126 13.3599 3.70469 13.3599 3.35125C13.3599 2.99775 13.6464 2.04395 13.9999 2.04395C14.3534 2.04389 14.6399 2.99775 14.6399 3.35125Z" fill="#FFF5CC"/>
<path d="M11.1212 6.38435C11.0328 6.72659 10.6837 6.93238 10.3415 6.844C9.99922 6.75563 9.79344 6.4065 9.88181 6.06427C9.97019 5.72203 10.4862 4.87016 10.8285 4.95854C11.1707 5.04691 11.2096 6.04217 11.1212 6.38435Z" fill="#FFF5CC"/>
<path d="M7.59995 3.59671C7.44584 3.91477 7.06308 4.04777 6.74491 3.89366C6.42685 3.73955 6.29385 3.35679 6.44796 3.03862C6.60207 2.72056 7.27576 1.98698 7.59394 2.14114C7.91206 2.29531 7.75406 3.27865 7.59995 3.59671Z" fill="#FFF5CC"/>
</svg>
