<svg width="36" height="24" viewBox="0 0 36 24" fill="none" xmlns="http://www.w3.org/2000/svg">
<path d="M34.3125 6.375H33.75H32.0625H18H3.9375H2.25H1.6875C1.06875 6.375 0.5625 6.88069 0.5625 7.5V9.75H14.0625H18H21.9375H35.4375V7.5C35.4375 6.88069 34.9313 6.375 34.3125 6.375Z" fill="#CCD1D9"/>
<path d="M28.6875 14.8125C29.6212 14.8125 30.375 15.5724 30.375 16.5C30.375 17.4337 29.6212 18.1875 28.6875 18.1875C27.7599 18.1875 27 17.4337 27 16.5C27 15.5724 27.7599 14.8125 28.6875 14.8125Z" fill="#545C66"/>
<path d="M7.3125 14.8125C8.24625 14.8125 9 15.5724 9 16.5C9 17.4337 8.24625 18.1875 7.3125 18.1875C6.38494 18.1875 5.625 17.4337 5.625 16.5C5.625 15.5724 6.38494 14.8125 7.3125 14.8125Z" fill="#545C66"/>
<path d="M16.3125 23.2275V23.25H14.0625V21H16.3125V23.2275Z" fill="#CCD1D9"/>
<path d="M14.0625 13.125H21.9375V18.1875H14.0625V13.125Z" fill="#CCD1D9"/>
<path d="M7.3125 11.4375C10.1081 11.4375 12.375 13.7044 12.375 16.5C12.375 19.2962 10.1081 21.5625 7.3125 21.5625C4.51688 21.5625 2.25 19.2962 2.25 16.5C2.25 13.7044 4.51688 11.4375 7.3125 11.4375ZM9 16.5C9 15.5724 8.24625 14.8125 7.3125 14.8125C6.38494 14.8125 5.625 15.5724 5.625 16.5C5.625 17.4338 6.38494 18.1875 7.3125 18.1875C8.24625 18.1875 9 17.4338 9 16.5Z" fill="#656D78"/>
<path d="M2.25 2.4375H3.9375V6.375H2.25V2.4375Z" fill="#AAB2BD"/>
<path d="M32.0625 2.4375H33.75V6.375H32.0625V2.4375Z" fill="#AAB2BD"/>
<path d="M21.9375 18.1875V21H19.6931H16.3125H14.0625V18.1875H21.9375Z" fill="#AAB2BD"/>
<path d="M28.6875 11.4375C31.4831 11.4375 33.75 13.7044 33.75 16.5C33.75 19.2962 31.4831 21.5625 28.6875 21.5625C25.8919 21.5625 23.625 19.2962 23.625 16.5C23.625 13.7044 25.8919 11.4375 28.6875 11.4375ZM30.375 16.5C30.375 15.5724 29.6213 14.8125 28.6875 14.8125C27.7599 14.8125 27 15.5724 27 16.5C27 17.4338 27.7599 18.1875 28.6875 18.1875C29.6213 18.1875 30.375 17.4338 30.375 16.5Z" fill="#656D78"/>
<path d="M21.9377 21V23.25H19.6934V23.2275V21H21.9377Z" fill="#CCD1D9"/>
<path d="M21.9375 9.75619V13.125H14.0625V9.75619V9.75H18H21.9375V9.75619Z" fill="#AAB2BD"/>
<path d="M33.1875 0.75C33.4969 0.75 33.75 1.00312 33.75 1.3125V2.4375C33.75 2.74688 33.4969 3 33.1875 3H32.625C32.3156 3 31.8094 3 31.5 3H4.5C4.19062 3 3.68438 3 3.375 3H2.8125C2.50312 3 2.25 2.74688 2.25 2.4375V1.3125C2.25 1.00312 2.50312 0.75 2.8125 0.75H33.1875Z" fill="#656D78"/>
<path d="M19.6931 23.2275V23.25H16.3125V23.2275V21H19.6931V23.2275Z" fill="#CCD1D9"/>
<path d="M19.4056 17.0615H16.5942C16.2832 17.0615 16.0317 16.8101 16.0317 16.499C16.0317 16.188 16.2832 15.9365 16.5942 15.9365H19.4056C19.7167 15.9365 19.9681 16.188 19.9681 16.499C19.9681 16.8101 19.7167 17.0615 19.4056 17.0615Z" fill="#545C66"/>
<path d="M2.82996 8.62402C2.5189 8.62402 2.26465 8.37202 2.26465 8.06152C2.26465 7.75046 2.51327 7.49902 2.82377 7.49902H2.82996C3.14046 7.49902 3.39246 7.75046 3.39246 8.06152C3.39246 8.37202 3.14046 8.62402 2.82996 8.62402Z" fill="#AAB2BD"/>
<path d="M4.51746 8.62402C4.2064 8.62402 3.95215 8.37202 3.95215 8.06152C3.95215 7.75046 4.20077 7.49902 4.51127 7.49902H4.51746C4.82796 7.49902 5.07996 7.75046 5.07996 8.06152C5.07996 8.37202 4.82796 8.62402 4.51746 8.62402Z" fill="#AAB2BD"/>
<path d="M6.20496 8.62402C5.8939 8.62402 5.63965 8.37202 5.63965 8.06152C5.63965 7.75046 5.88827 7.49902 6.19877 7.49902H6.20496C6.51546 7.49902 6.76746 7.75046 6.76746 8.06152C6.76746 8.37202 6.51546 8.62402 6.20496 8.62402Z" fill="#AAB2BD"/>
<path d="M7.89246 8.62402C7.5814 8.62402 7.32715 8.37202 7.32715 8.06152C7.32715 7.75046 7.57577 7.49902 7.88627 7.49902H7.89246C8.20296 7.49902 8.45496 7.75046 8.45496 8.06152C8.45496 8.37202 8.20296 8.62402 7.89246 8.62402Z" fill="#AAB2BD"/>
<path d="M33.75 8.62402H32.625C32.3139 8.62402 32.0625 8.37202 32.0625 8.06152C32.0625 7.75046 32.3139 7.49902 32.625 7.49902H33.75C34.0611 7.49902 34.3125 7.75046 34.3125 8.06152C34.3125 8.37202 34.0611 8.62402 33.75 8.62402Z" fill="#AAB2BD"/>
<path d="M30.9375 8.62402H29.8125C29.5014 8.62402 29.25 8.37202 29.25 8.06152C29.25 7.75046 29.5014 7.49902 29.8125 7.49902H30.9375C31.2486 7.49902 31.5 7.75046 31.5 8.06152C31.5 8.37202 31.2486 8.62402 30.9375 8.62402Z" fill="#AAB2BD"/>
<path d="M28.125 8.62402H27C26.6889 8.62402 26.4375 8.37202 26.4375 8.06152C26.4375 7.75046 26.6889 7.49902 27 7.49902H28.125C28.4361 7.49902 28.6875 7.75046 28.6875 8.06152C28.6875 8.37202 28.4361 8.62402 28.125 8.62402Z" fill="#AAB2BD"/>
<path d="M21.9375 8.62402H14.0625C13.7514 8.62402 13.5 8.37202 13.5 8.06152C13.5 7.75046 13.7514 7.49902 14.0625 7.49902H21.9375C22.2486 7.49902 22.5 7.75046 22.5 8.06152C22.5 8.37202 22.2486 8.62402 21.9375 8.62402Z" fill="#AAB2BD"/>
<path d="M18 9.18652C17.6889 9.18652 17.4375 8.93452 17.4375 8.62402V7.49902C17.4375 7.18796 17.6889 6.93652 18 6.93652C18.3111 6.93652 18.5625 7.18796 18.5625 7.49902V8.62402C18.5625 8.93452 18.3111 9.18652 18 9.18652Z" fill="#E6E9ED"/>
<path d="M16.3125 21H16.875V23.25H16.3125V21Z" fill="#AAB2BD"/>
<path d="M19.125 21H19.6875V23.25H19.125V21Z" fill="#AAB2BD"/>
<path d="M16.5942 17.0615C15.8186 17.0615 15.188 16.431 15.188 15.6553C15.188 14.8796 15.8186 14.249 16.5942 14.249C17.3699 14.249 18.0005 14.8796 18.0005 15.6553C18.0005 16.431 17.3699 17.0615 16.5942 17.0615ZM16.5942 15.374C16.4396 15.374 16.313 15.5006 16.313 15.6553C16.313 15.81 16.4396 15.9365 16.5942 15.9365C16.7489 15.9365 16.8755 15.81 16.8755 15.6553C16.8755 15.5006 16.7489 15.374 16.5942 15.374Z" fill="#656D78"/>
<path d="M19.4058 17.0615C18.6301 17.0615 17.9995 16.431 17.9995 15.6553C17.9995 14.8796 18.6301 14.249 19.4058 14.249C20.1814 14.249 20.812 14.8796 20.812 15.6553C20.812 16.431 20.1814 17.0615 19.4058 17.0615ZM19.4058 15.374C19.2511 15.374 19.1245 15.5006 19.1245 15.6553C19.1245 15.81 19.2511 15.9365 19.4058 15.9365C19.5604 15.9365 19.687 15.81 19.687 15.6553C19.687 15.5006 19.5604 15.374 19.4058 15.374Z" fill="#656D78"/>
<path d="M21.9375 9.75619V13.125V18.1875V21V23.25H34.3125C34.9312 23.25 35.4375 22.7437 35.4375 22.125V9.75H21.9375V9.75619ZM28.6875 11.4375C31.4831 11.4375 33.75 13.7044 33.75 16.5C33.75 19.2962 31.4831 21.5625 28.6875 21.5625C25.8919 21.5625 23.625 19.2962 23.625 16.5C23.625 13.7044 25.8919 11.4375 28.6875 11.4375Z" fill="#E6E9ED"/>
<path d="M14.0625 18.1875V13.125V9.75619V9.75H0.5625V22.125C0.5625 22.7437 1.06875 23.25 1.6875 23.25H14.0625V21V18.1875ZM7.3125 21.5625C4.51688 21.5625 2.25 19.2962 2.25 16.5C2.25 13.7044 4.51688 11.4375 7.3125 11.4375C10.1081 11.4375 12.375 13.7044 12.375 16.5C12.375 19.2962 10.1081 21.5625 7.3125 21.5625Z" fill="#E6E9ED"/>
</svg>
