<svg width="34" height="34" viewBox="0 0 34 34" fill="none" xmlns="http://www.w3.org/2000/svg">
<path d="M29.9027 16.0703L24.5039 18.0625L19.105 16.0703L19.643 12.0859H29.3647L29.9027 16.0703Z" fill="#DEECF1"/>
<path d="M29.9028 16.0703L24.5039 18.0625V12.0859H29.3648L29.9028 16.0703Z" fill="#C6E2E7"/>
<path d="M23.5078 25.0352H25.5V33.0039H23.5078V25.0352Z" fill="#C6E2E7"/>
<path d="M24.5039 25.0352H25.5V33.0039H24.5039V25.0352Z" fill="#A8D3D8"/>
<path d="M19.5234 32.0078H29.4844V34H19.5234V32.0078Z" fill="#DEECF1"/>
<path d="M24.5039 32.0078H29.4844V34H24.5039V32.0078Z" fill="#C6E2E7"/>
<path d="M24.504 26.0312C20.7785 26.0312 17.9894 22.6246 18.7266 18.979L19.1051 16.0703H29.9029L30.3013 19.0386C30.9986 22.5649 28.2692 26.0312 24.504 26.0312Z" fill="#CF5668"/>
<path d="M24.5039 26.0312V16.0703H29.9028L30.3012 19.0386C30.9985 22.5649 28.2691 26.0312 24.5039 26.0312Z" fill="#C83C50"/>
<path d="M7.57031 0V10.0938H13.5469V0H7.57031Z" fill="#5A5A5A"/>
<path d="M10.5586 0H13.5469V10.0938H10.5586V0Z" fill="#444444"/>
<path d="M17.5312 15.5523V34H3.58594V30.0156L5.57812 28.0234V18.0625L3.58594 16.0703V15.5523C3.58594 11.5479 6.35503 9.61568 7.57031 8.10156H13.5469C14.7622 9.61568 17.5312 11.5479 17.5312 15.5523Z" fill="#B03244"/>
<path d="M17.5312 15.5523V34H10.5586V8.10156H13.5469C14.7622 9.61568 17.5312 11.5479 17.5312 15.5523Z" fill="#962A3A"/>
<path d="M13.5469 24.0391V30.0156H3.58594V24.0391L8.56641 22.0469L13.5469 24.0391Z" fill="#C6E2E7"/>
<path d="M13.5469 24.0391V30.0156H10.5586V22.8438L13.5469 24.0391Z" fill="#A8D3D8"/>
<path d="M3.58594 16.0703H13.5469V24.0391H3.58594V16.0703Z" fill="#DEECF1"/>
<path d="M10.5586 16.0703H13.5469V24.0391H10.5586V16.0703Z" fill="#C6E2E7"/>
</svg>
