<svg width="26" height="38" viewBox="0 0 26 38" fill="none" xmlns="http://www.w3.org/2000/svg">
<path d="M24.6116 27.1993C24.6116 33.9521 19.1133 38.0474 12.3496 37.9999C12.0366 37.9974 11.7269 37.9863 11.4199 37.9668H11.4191C5.12436 37.5562 0.173154 33.4398 0.263924 27.0237C0.311424 23.7003 1.69063 20.7009 3.89099 18.532C4.84099 17.5964 5.44751 16.3749 5.62905 15.0534C5.63499 15.0144 5.64011 14.9796 5.64605 14.9491C6.29242 11.574 9.08735 9.03516 12.437 9.03516H12.4726C15.8061 9.05297 18.5842 11.5858 19.2279 14.9491C19.2313 14.9643 19.2339 14.9804 19.2364 14.9983C19.4553 16.3631 20.0821 17.6278 21.0584 18.6066C23.2536 20.8078 24.6116 23.8446 24.6116 27.1993Z" fill="#A3E261"/>
<path d="M12.4725 9.03523L12.3877 11.6181C12.3877 11.6181 11.2277 12.4965 11.0984 14.6735C10.759 20.3849 6.30585 22.4207 6.30585 28.1886C6.30585 33.9566 8.38405 36.2187 11.4207 37.966L11.4199 37.9668H11.4191C5.12429 37.5562 0.173154 33.4398 0.263924 27.0237C0.311424 23.7003 1.69063 20.7009 3.89099 18.532C4.84099 17.5964 5.44751 16.3749 5.62905 15.0534C5.63499 15.0144 5.64011 14.9796 5.64605 14.9491C6.29242 11.574 9.08735 9.03516 12.437 9.03516L12.4725 9.03523Z" fill="#93CC52"/>
<path d="M12.3044 11.4519C12.2676 11.4519 12.2305 11.4487 12.1932 11.4422C11.8473 11.3812 11.6163 11.0514 11.6772 10.7055C11.6872 10.6477 12.6611 4.90393 10.266 2.50882C10.0175 2.26034 10.0175 1.85755 10.266 1.60921C10.5144 1.36073 10.9172 1.36073 11.1656 1.60921C14.0293 4.47295 12.9764 10.6641 12.9303 10.9261C12.8757 11.2347 12.6073 11.4519 12.3044 11.4519Z" fill="#B25719"/>
<path d="M10.9585 10.4741C11.3332 10.4703 11.5811 10.4657 11.8047 10.4508C12.0244 10.4382 12.2048 10.43 12.3869 10.4298C12.569 10.4286 12.7491 10.4369 12.9683 10.4493C13.1917 10.464 13.4395 10.4694 13.8152 10.4743C13.8164 10.8526 13.6169 11.1581 13.3514 11.3749C13.0823 11.5899 12.7338 11.703 12.3869 11.702C12.0401 11.7014 11.6919 11.5884 11.4232 11.3732C11.158 11.1562 10.9586 10.8513 10.9585 10.4741Z" fill="#93CC52"/>
<path d="M14.5162 5.1329C12.2862 5.1329 11.2571 3.62559 11.2061 3.5484C11.0638 3.33354 11.1226 3.04416 11.3373 2.90181C11.5515 2.76005 11.8397 2.81801 11.9825 3.03102C12.0339 3.10628 13.1849 4.73419 15.8135 4.01242C16.062 3.94399 16.3187 4.09027 16.3869 4.33883C16.4551 4.58731 16.309 4.84404 16.0605 4.91224C15.4928 5.06803 14.9786 5.1329 14.5162 5.1329Z" fill="#B25719"/>
<path d="M22.5672 5.7044L25.7377 2.35573L21.5428 0.440065C18.9676 -0.736005 15.9368 0.533803 14.9688 3.19417L14.8814 3.43457C14.6325 4.11894 14.7814 4.88488 15.2689 5.42601L15.4401 5.61608C17.3348 7.71944 20.6208 7.76019 22.5672 5.7044Z" fill="#2FCC6E"/>
</svg>
