<svg width="34" height="36" viewBox="0 0 34 36" fill="none" xmlns="http://www.w3.org/2000/svg">
<path d="M28.15 9.18158L25.922 36.0003H19.2848L17.063 12.9095L14.8418 36.0003H8.20454L5.97656 9.18158L6.84659 5.26743L7.30521 3.20447L18.7546 1.92676L26.8209 3.20447L28.15 9.18158Z" fill="#515A5E"/>
<path d="M18.2395 9.7233H15.8881C15.6048 9.7233 15.3755 9.4805 15.3755 9.18057C15.3755 8.88092 15.6048 8.63785 15.8881 8.63785H17.7269V3.20483C17.7269 2.90491 17.9565 2.66211 18.2395 2.66211C18.5228 2.66211 18.7521 2.90491 18.7521 3.20483V9.18057C18.7521 9.4805 18.5228 9.7233 18.2395 9.7233Z" fill="#343C3F"/>
<path d="M21.0253 36H19.2847L17.063 12.9092C19.0661 12.9092 20.4002 24.5198 21.0253 36Z" fill="#343C3F"/>
<path d="M10.1638 36.0005H8.20454L5.97656 9.18173L6.84659 5.26758L10.1215 6.00558C8.51894 7.7027 8.02686 20.0824 10.1638 36.0005Z" fill="#343C3F"/>
<path d="M7.30544 3.2041H11.1007C11.1007 5.86554 8.33473 8.3078 5.97705 9.18121L7.30544 3.2041Z" fill="#1E2628"/>
<path d="M28.1501 9.18121C25.7916 8.3078 23.0259 5.86554 23.0259 3.2041H26.8209L28.1501 9.18121Z" fill="#1E2628"/>
<path d="M7.30518 0.542969H26.8219V3.20441H7.30518V0.542969Z" fill="#F0C398"/>
<path d="M7.30518 0.542969H11.8561V3.20441H7.30518V0.542969Z" fill="#D89D6C"/>
<path d="M11.4456 34.6148C11.1644 34.6148 10.9354 34.3747 10.9333 34.0764L10.7476 8.89743C10.7452 8.59778 10.973 8.35278 11.256 8.35059H11.2601C11.5413 8.35059 11.7704 8.59064 11.7727 8.88892L11.9585 34.0679C11.9605 34.3676 11.7328 34.6123 11.4498 34.6148C11.4485 34.6148 11.4469 34.6148 11.4456 34.6148Z" fill="#343C3F"/>
<path d="M22.6806 34.6148C22.6793 34.6148 22.678 34.6148 22.6764 34.6148C22.3934 34.6123 22.1657 34.3676 22.168 34.0679L22.3537 8.88892C22.3558 8.59064 22.5848 8.35059 22.8663 8.35059H22.8702C23.1534 8.35278 23.3812 8.59778 23.3789 8.89743L23.1931 34.0764C23.1908 34.3747 22.9617 34.6148 22.6806 34.6148Z" fill="#343C3F"/>
<path d="M19.6932 3.74716C19.4102 3.74716 19.1807 3.50409 19.1807 3.20444V0.542725C19.1807 0.243072 19.4102 0 19.6932 0C19.9765 0 20.2058 0.243072 20.2058 0.542725V3.20444C20.2058 3.50409 19.9765 3.74716 19.6932 3.74716Z" fill="#515A5E"/>
<path d="M14.3055 3.74716C14.0223 3.74716 13.793 3.50409 13.793 3.20444V0.542725C13.793 0.243072 14.0223 0 14.3055 0C14.5885 0 14.8181 0.243072 14.8181 0.542725V3.20444C14.8181 3.50409 14.5885 3.74716 14.3055 3.74716Z" fill="#515A5E"/>
<path d="M9.13025 3.74716C8.84698 3.74716 8.61768 3.50409 8.61768 3.20444V0.542725C8.61768 0.243072 8.84698 0 9.13025 0C9.41325 0 9.64282 0.243072 9.64282 0.542725V3.20444C9.64282 3.50409 9.41325 3.74716 9.13025 3.74716Z" fill="#1E2628"/>
<path d="M24.9969 3.74716C24.7139 3.74716 24.4844 3.50409 24.4844 3.20444V0.542725C24.4844 0.243072 24.7139 0 24.9969 0C25.2802 0 25.5095 0.243072 25.5095 0.542725V3.20444C25.5095 3.50409 25.28 3.74716 24.9969 3.74716Z" fill="#1E2628"/>
<path d="M18.2446 2.41589C18.0388 2.41589 17.8503 2.28131 17.7714 2.08081C17.6884 1.86932 17.7426 1.61829 17.9053 1.46695C18.2469 1.14889 18.7986 1.44635 18.7545 1.92618C18.7294 2.20084 18.505 2.41589 18.2446 2.41589Z" fill="#515A5E"/>
</svg>
