<svg width="30" height="32" viewBox="0 0 30 32" fill="none" xmlns="http://www.w3.org/2000/svg">
<path d="M10.3118 0V2H11.2494C11.7666 2 12.1869 2.42025 12.1869 2.9375V7.625H17.8119V2.9375C17.8119 2.42025 18.2321 2 18.7494 2H19.6869V0C19.4152 0 10.0089 0 10.3118 0Z" fill="#6B5B73"/>
<path d="M17.812 2.9375C17.812 2.42025 18.2323 2 18.7495 2H19.687V0C19.5554 0 17.2775 0 14.9995 0V7.625H17.812V2.9375Z" fill="#503D59"/>
<path d="M24.3745 15.125H16.8745V13.25H24.3745C24.8918 13.25 25.312 12.8298 25.312 12.3125V10.4375H27.187V12.3125C27.187 13.8634 25.9254 15.125 24.3745 15.125Z" fill="#73A1FF"/>
<path d="M25.312 0H27.187V4.8125H25.312V0Z" fill="#E1E6F0"/>
<path d="M26.2495 11.375C24.6986 11.375 23.437 10.1134 23.437 8.5625V3.875H29.062V8.5625C29.062 10.1134 27.8004 11.375 26.2495 11.375Z" fill="#CFD7E6"/>
<path d="M9.3746 24.5H6.5621C3.23479 24.5 0.632414 21.6284 0.966414 18.2982C1.24929 15.4674 3.82466 13.25 6.82941 13.25H13.1246V15.125H6.82941C4.77591 15.125 3.01991 16.6008 2.83222 18.485C2.60235 20.7803 4.41016 22.625 6.5621 22.625H9.3746V24.5Z" fill="#80D5FF"/>
<path d="M21.562 28.25H8.43701V23.5625C8.43701 21.4815 9.39376 19.569 11.0609 18.3138C11.7649 17.7782 12.187 16.9424 12.187 16.0808V10.4375C11.0179 9.56869 10.312 8.178 10.312 6.6875V5.75H19.687V6.6875C19.687 8.178 18.9811 9.56869 17.812 10.4375V16.0808C17.812 16.9423 18.2341 17.7782 18.9418 18.3165C20.6053 19.5689 21.562 21.4815 21.562 23.5625V28.25Z" fill="#F3F5F9"/>
<path d="M21.562 23.5625C21.562 21.4815 20.6053 19.569 18.9418 18.3165C18.2341 17.7782 17.812 16.9423 17.812 16.0808V10.4375C18.9811 9.56869 19.687 8.178 19.687 6.6875V5.75H14.9995V28.25H21.562V23.5625Z" fill="#CFD7E6"/>
<path d="M18.7495 32H11.2495C8.66495 32 6.56201 29.8971 6.56201 27.3125V26.375H23.437V27.3125C23.437 29.8971 21.334 32 18.7495 32Z" fill="#80D5FF"/>
<path d="M23.437 26.375H14.9995V32H18.7495C21.3341 32 23.437 29.8971 23.437 27.3125V26.375Z" fill="#73A1FF"/>
</svg>
