<svg width="26" height="26" viewBox="0 0 26 26" fill="none" xmlns="http://www.w3.org/2000/svg">
<g clip-path="url(#clip0)">
<path d="M25.8416 21.2828L17.5573 12.9996L18.2572 12.2998C18.4686 12.0883 18.4686 11.7455 18.2572 11.5339L17.1738 10.4506C16.9623 10.2391 16.6195 10.2391 16.4079 10.4506L10.4496 16.4089C10.2382 16.6204 10.2382 16.9633 10.4496 17.1748L11.5329 18.2581C11.7444 18.4696 12.0873 18.4696 12.2989 18.2581L12.9998 17.5572L14.0831 18.6405V20.0413C14.0831 20.3404 14.3256 20.5829 14.6248 20.5829H16.0255L18.4165 22.9739V24.3746C18.4165 24.6738 18.659 24.9163 18.9581 24.9163H20.3589L21.2841 25.8415C21.3856 25.9427 21.5231 25.9996 21.6665 25.9997H25.4582C25.7573 25.9997 25.9999 25.7571 25.9999 25.458V21.6663C26 21.5225 25.9431 21.3846 25.8416 21.2828Z" fill="#CFD8DC"/>
<path d="M17.4915 5.89228L12.9068 1.30761C11.1634 -0.435861 8.33668 -0.435861 6.59321 1.30756C6.59321 1.30756 6.59321 1.30756 6.59316 1.30761L1.30761 6.59316C-0.435861 8.33663 -0.435861 11.1633 1.30756 12.9068C1.30756 12.9068 1.30756 12.9068 1.30761 12.9068L5.89228 17.4915C6.48566 18.0818 7.288 18.4143 8.12503 18.4167C8.96287 18.4184 9.76668 18.0853 10.3578 17.4915L17.4926 10.3567C18.7254 9.12384 18.7254 7.12505 17.4926 5.89223L17.4915 5.89228ZM10.3567 6.02335L6.02335 10.3567C5.37782 10.9801 4.34909 10.9622 3.7256 10.3167C3.1174 9.68696 3.1174 8.68865 3.7256 8.05891L8.05891 3.7256C8.69373 3.09079 9.72296 3.09079 10.3577 3.7256C10.9925 4.36042 10.9925 5.38965 10.3577 6.02442L10.3567 6.02335Z" fill="#455A64"/>
<path d="M23.1336 22.3663L15.5503 14.7829C15.3351 14.5751 14.9922 14.581 14.7844 14.7962C14.5816 15.0061 14.5816 15.3389 14.7844 15.5488L22.3677 23.1321C22.5829 23.34 22.9258 23.334 23.1336 23.1189C23.3364 22.9089 23.3364 22.5761 23.1336 22.3663Z" fill="#90A4AE"/>
</g>
<defs>
<clipPath id="clip0">
<rect width="26" height="26" fill="white"/>
</clipPath>
</defs>
</svg>
