<svg width="27" height="31" viewBox="0 0 27 31" fill="none" xmlns="http://www.w3.org/2000/svg">
<path d="M26.1636 25.0641L22.8971 15.9684C24.4988 13.7785 24.92 10.9039 23.9862 8.33897C23.2393 6.28676 21.7387 4.64868 19.76 3.72629C19.3147 3.51839 18.8542 3.36632 18.3892 3.24262C18.0344 3.14802 17.6759 2.53734 17.3149 2.49643C16.954 2.45527 16.591 2.98364 16.2268 2.98742C15.3117 2.99712 14.3952 3.13146 13.5097 3.45382C13.3891 3.49734 13.2694 3.54346 13.1523 3.59218L16.7859 12.0863L13.1533 18.676C13.5454 18.8401 13.9506 18.973 14.363 19.0752L15.1445 21.2821C15.2268 21.5082 15.3954 21.6927 15.6135 21.7946L17.1186 22.5569L16.4172 24.0618C16.205 24.5168 16.402 25.057 16.8561 25.269L18.3613 25.9704L17.6595 27.4756C17.4476 27.9307 17.6446 28.4709 18.0987 28.6828L22.755 30.8539C22.8791 30.9117 23.0094 30.9391 23.1381 30.9391C23.4803 30.9391 23.8077 30.7447 23.9621 30.415L26.1333 25.7585C26.2355 25.5405 26.2461 25.2902 26.1636 25.0641Z" fill="#FF9F00"/>
<path d="M13.5038 3.46332C9.25326 1.9014 4.56702 4.09907 3.02307 8.33144C2.09665 10.8926 2.49636 13.7625 4.11292 15.9604C4.02209 16.2328 0.843378 25.0727 0.843378 25.0727C0.752558 25.2905 0.770533 25.545 0.879565 25.7628C1.09763 26.2351 2.87785 30.0678 3.04104 30.4129C3.15008 30.6489 3.33195 30.8124 3.54978 30.885C3.76784 30.9578 4.02209 30.9578 4.25813 30.8488C4.74866 30.6127 8.90819 28.6873 8.9264 28.6873C9.36229 28.451 9.56214 27.9243 9.34408 27.4702C9.27147 27.325 8.74476 26.1625 8.65394 25.9627C8.81737 25.8898 10.1435 25.2723 10.1615 25.2723C10.5976 25.0363 10.7972 24.5096 10.5976 24.0554C10.5068 23.91 9.97982 22.7475 9.88924 22.5659C10.0527 22.4751 11.3968 21.797 11.415 21.797C11.6328 21.67 11.7783 21.5066 11.8691 21.2885C11.9235 21.0886 12.6318 19.0844 12.65 19.0844C15.2838 18.4305 17.4453 16.4871 18.3899 13.9259C19.9337 9.69375 17.736 4.9893 13.5038 3.46332ZM13.8851 10.3657C13.3766 11.7644 11.8144 12.5092 10.3975 11.9825C8.9808 11.4737 8.25423 9.91158 8.76297 8.49487C9.27147 7.07817 10.8516 6.3516 12.2503 6.8601H12.2685C13.6673 7.40503 14.3936 8.93076 13.8851 10.3657Z" fill="#FFD400"/>
<path d="M18.39 3.24541C17.6817 3.04556 16.9551 2.97295 16.2285 2.99116C15.7198 2.22818 15.0841 1.75586 14.4121 1.75586C14.3213 1.75586 14.2485 1.75586 14.1576 1.77407C12.7953 1.99214 11.6875 3.98995 11.6875 6.29688C11.6875 6.71456 11.7237 7.11427 11.7963 7.51397C11.8689 8.00426 11.5421 8.47657 11.0518 8.54918C10.9971 8.56739 10.9427 8.56739 10.8881 8.56739C10.4522 8.56739 10.0707 8.25875 9.9981 7.82262C9.90728 7.33233 9.87109 6.80562 9.87109 6.29688C9.87109 2.73668 11.8689 -0.0605469 14.4121 -0.0605469C14.5573 -0.0605469 14.7208 -0.0423355 14.8662 -0.00591269C16.3738 0.175728 17.6814 1.41079 18.39 3.24541Z" fill="#3E5959"/>
<path d="M18.3901 3.24547C17.6817 3.04562 16.9552 2.97301 16.2286 2.99122C15.7199 2.22823 15.0841 1.75592 14.4122 1.75592C14.3214 1.75592 14.2485 1.75592 14.1577 1.77413L14.8663 -0.00585938C16.3738 0.175782 17.6815 1.41085 18.3901 3.24547Z" fill="#384949"/>
<path d="M18.39 13.9255C17.4453 16.4866 15.2839 18.4303 12.6501 19.084C12.6319 19.084 11.9235 21.0882 11.8689 21.2881C11.778 21.5061 11.6328 21.6696 11.4148 21.7966C11.3968 21.7966 10.0525 22.4749 9.88903 22.5655C9.97985 22.7471 10.5066 23.9098 10.5976 24.055C10.7972 24.5091 10.5976 25.0358 10.1615 25.2719C10.1435 25.2719 8.81739 25.8894 8.65396 25.9622C8.74478 26.1621 9.27149 27.3246 9.3441 27.4698C9.56217 27.9239 9.36208 28.4506 8.92619 28.6869C8.90821 28.6869 4.74845 30.6123 4.25816 30.8483C4.02212 30.9574 3.76763 30.9574 3.5498 30.8845L10.3975 11.982C11.8145 12.5088 13.3766 11.764 13.8851 10.3652C14.3936 8.93057 13.6673 7.40459 12.2686 6.85967L13.5039 3.46289C17.736 4.98886 19.9337 9.69332 18.39 13.9255Z" fill="#FDBF00"/>
</svg>
