<svg width="36" height="36" viewBox="0 0 36 36" fill="none" xmlns="http://www.w3.org/2000/svg">
<g clip-path="url(#clip0)">
<path d="M30.4404 11.1514V11.1521L30.203 13.6029L28.6142 29.9863C28.6142 32.0788 24.2637 33.7763 18.8969 33.7763C17.2569 33.7763 15.7122 33.618 14.3577 33.3382C11.2769 32.7025 9.17883 31.4399 9.17883 29.9863L7.58998 13.6029L7.40211 11.6647L7.35254 11.1522V11.1514H30.4404Z" fill="#97F2E3"/>
<path d="M30.4409 11.1514V11.1521L30.2034 13.6029C27.7439 15.0117 23.5973 15.9377 18.8966 15.9377C14.1958 15.9377 10.0492 15.0117 7.59047 13.6029L7.35303 11.1521V11.1514H30.4409Z" fill="#76DDCE"/>
<path d="M32.5637 8.29671C32.5637 11.2408 26.4445 13.6275 18.8965 13.6275C16.6648 13.6275 14.5579 13.4188 12.6981 13.0494C8.26522 12.1675 5.22998 10.37 5.22998 8.29671L7.08419 4.60742H30.7094L32.5637 8.29671Z" fill="#E6E6E6"/>
<path d="M15.1984 6.51043L12.6981 13.0494C8.26523 12.1675 5.22998 10.37 5.22998 8.29671L7.08419 4.60742H13.0946L15.1984 6.51043Z" fill="#CCCCCC"/>
<path d="M18.8965 9.21598C25.4207 9.21598 30.7096 7.15292 30.7096 4.60799C30.7096 2.06307 25.4207 0 18.8965 0C12.3724 0 7.0835 2.06307 7.0835 4.60799C7.0835 7.15292 12.3724 9.21598 18.8965 9.21598Z" fill="#F2F2F2"/>
<path d="M18.8966 7.32514C16.1069 7.32514 13.4733 6.92527 11.481 6.19915C9.56297 5.50011 9.01834 4.76999 8.97559 4.60792C9.01827 4.44585 9.56297 3.71572 11.4809 3.01668C13.4731 2.29056 16.1067 1.89062 18.8965 1.89062C21.6862 1.89062 24.3198 2.29049 26.3121 3.01668C28.2301 3.71572 28.7748 4.44585 28.8175 4.60792C28.7748 4.76999 28.2301 5.50011 26.312 6.19915C24.3198 6.92527 21.6864 7.32514 18.8966 7.32514Z" fill="#CCCCCC"/>
<path d="M14.3579 33.3384C11.277 32.7027 9.179 31.4402 9.179 29.9865L7.59022 13.6032L7.40234 11.665L13.2793 14.4268L14.3579 33.3384Z" fill="#76DDCE"/>
<path d="M3.46631 31.5322C3.17219 33.5827 5.08947 35.5542 7.74819 35.9355C9.90755 36.2452 11.8921 35.4111 12.7188 33.9887" fill="#4CA1E0"/>
<path d="M24.9521 34.4516C24.9521 34.5052 24.9489 34.5588 24.9409 34.6123C24.853 35.2232 24.2869 35.647 23.676 35.5599L12.254 33.9215C12.0877 34.0119 11.9006 34.0927 11.695 34.163C10.7484 34.486 9.41383 34.5844 7.97221 34.3773C5.85335 34.0742 4.14222 33.2035 3.62086 32.26C3.48733 32.0193 3.43214 31.7738 3.46652 31.5324C3.63766 30.3418 5.93083 29.6861 8.59026 30.0676C10.3453 30.3194 11.8198 30.9599 12.5713 31.7091L23.9934 33.3474C24.5508 33.4266 24.9521 33.9047 24.9521 34.4516Z" fill="#4CA1E0"/>
<path d="M11.6948 34.1633C10.7481 34.4863 9.41357 34.5847 7.97196 34.3776C5.85309 34.0746 4.14197 33.2038 3.62061 32.2603C3.62138 32.2539 3.62377 32.2475 3.62539 32.2411C3.87169 31.4159 5.88902 31.2897 8.13185 31.9597C9.9509 32.5026 11.3597 33.403 11.6948 34.1633Z" fill="#3C91C6"/>
</g>
<defs>
<clipPath id="clip0">
<rect width="36" height="36" fill="white"/>
</clipPath>
</defs>
</svg>
