<svg width="22" height="36" viewBox="0 0 22 36" fill="none" xmlns="http://www.w3.org/2000/svg">
<path d="M17.8274 0.620714V4.34486H4.17236V0.620714C4.17342 0.278365 4.45066 0.00105468 4.79308 0H17.2068C17.5491 0.00105468 17.8264 0.278295 17.8274 0.620714Z" fill="#ECF0F1"/>
<path d="M21.5516 12.612V34.1374H14.1034V12.612C14.1034 12.3327 12.7999 11.4389 12.862 11.172L20.3102 9.93066L21.4585 11.7927C21.5208 12.0613 21.552 12.3362 21.5516 12.612Z" fill="#BDC3C7"/>
<path d="M14.1964 11.7925C14.1341 12.0612 14.1029 12.336 14.1033 12.6118V32.8958H0.448246V12.6119C0.447825 12.3361 0.479043 12.0612 0.54134 11.7926L1.06889 11.1719H14.1032L14.1964 11.7925Z" fill="#ECF0F1"/>
<path d="M21.4584 11.7926H14.1964C14.2523 11.5381 13.9916 3.96572 14.1034 3.72363H17.8275L21.2102 11.0477C21.3197 11.2863 21.4029 11.5361 21.4584 11.7926Z" fill="#BDC3C7"/>
<path d="M14.1032 31.034V35.9995H1.6896C1.00483 35.9975 0.450211 35.4429 0.448242 34.7581V17.3789C2.25934 17.3779 3.99653 18.0969 5.2772 19.3775C6.55786 20.6582 7.2768 22.3954 7.27581 24.2065C7.27476 26.0176 7.99377 27.7548 9.27443 29.0354C10.5551 30.3161 12.2922 31.0351 14.1032 31.034Z" fill="#4482C3"/>
<path d="M17.8276 3.72461L14.4448 11.0487C14.3353 11.2873 14.2521 11.537 14.1966 11.7935H0.541504C0.59698 11.537 0.680229 11.2872 0.789775 11.0487L4.17248 3.72461C4.17248 3.72461 17.8276 3.72461 17.8276 3.72461Z" fill="#E6E7E8"/>
<path d="M21.5517 34.1377V34.8204C21.5333 35.4883 20.9783 36.0156 20.3104 35.9997H14.1035V31.0342C16.5097 31.035 18.8396 31.8783 20.689 33.4176L21.5517 34.1377Z" fill="#285680"/>
<path d="M11.0002 8.37887V6.82715H6.03467V8.37887C6.03467 8.37887 6.3967 8.99958 8.36199 8.99958C9.2842 9.06701 10.2049 8.85045 11.0002 8.37887Z" fill="#BDC3C7"/>
<path d="M8.51689 8.06865C9.88806 8.06865 10.9996 7.51288 10.9996 6.82729C10.9996 6.14171 9.88806 5.58594 8.51689 5.58594C7.14573 5.58594 6.03418 6.14171 6.03418 6.82729C6.03418 7.51288 7.14573 8.06865 8.51689 8.06865Z" fill="#4482C3"/>
</svg>
