<svg width="39" height="17" viewBox="0 0 39 17" fill="none" xmlns="http://www.w3.org/2000/svg">
<path d="M36.0284 16.8688C35.8802 16.8688 35.7321 16.8123 35.619 16.6989L30.8535 11.9337L0.448628 4.89849C0.137097 4.82618 -0.0572016 4.51525 0.0151024 4.20342C0.0871087 3.89189 0.398938 3.69789 0.709875 3.76989L31.2763 10.8423C31.3819 10.867 31.4786 10.9205 31.5554 10.9973L36.4381 15.8801C36.6643 16.1062 36.6643 16.4728 36.4381 16.6989C36.3251 16.8123 36.1766 16.8688 36.0284 16.8688Z" fill="#343C3F"/>
<path d="M2.97141 16.8691C2.82324 16.8691 2.67506 16.8126 2.56169 16.6992C2.33556 16.4731 2.33556 16.1065 2.56169 15.8803L7.44474 10.9973C7.5215 10.9205 7.61821 10.867 7.72384 10.8423L38.2902 3.76988C38.6015 3.69787 38.913 3.89217 38.985 4.2037C39.0573 4.51523 38.863 4.82647 38.5512 4.89847L12.7991 10.8574L8.14665 11.9337L3.38084 16.6992C3.26777 16.8123 3.11959 16.8691 2.97141 16.8691Z" fill="#343C3F"/>
<path d="M17.3162 6.47708C17.3162 10.4589 14.3892 13.7572 10.5696 14.3395C10.1756 14.3999 9.77247 14.4305 9.36155 14.4305C4.96887 14.4305 1.40723 10.8698 1.40723 6.47708C1.40723 2.08439 4.96887 0.852539 9.36155 0.852539C9.77098 0.852539 10.1733 0.863548 10.5657 0.88646H10.5726C14.3907 1.11141 17.3162 2.49619 17.3162 6.47708Z" fill="#9DCAE0"/>
<path d="M17.3164 6.47733C17.3164 10.4591 14.3894 13.7574 10.5698 14.3397C6.75021 13.7583 3.82324 10.4591 3.82324 6.47733C3.82324 2.49615 6.74783 1.11166 10.566 0.886719H10.5728C14.3909 1.11166 17.3164 2.49645 17.3164 6.47733Z" fill="#CCE6F6"/>
<path d="M37.5921 6.47708C37.5921 10.4327 34.7047 13.714 30.9214 14.3273C30.5037 14.3951 30.0749 14.4305 29.6378 14.4305C25.2451 14.4305 21.6841 10.8698 21.6841 6.47708C21.6841 2.08439 25.2451 0.852539 29.6378 0.852539C30.0749 0.852539 30.5037 0.865036 30.9214 0.89122C34.7047 1.12896 37.5921 2.52148 37.5921 6.47708Z" fill="#9DCAE0"/>
<path d="M37.5922 6.47745C37.5922 10.433 34.7048 13.7144 30.9215 14.3276C27.1382 13.7144 24.2505 10.433 24.2505 6.47745C24.2505 2.52186 27.1382 1.12934 30.9215 0.891602C34.7048 1.12934 37.5922 2.52186 37.5922 6.47745Z" fill="#CCE6F6"/>
<path d="M17.2385 7.59441C17.1189 8.44778 16.8633 9.25859 16.494 10.0025L12.7997 10.8573L8.14662 11.9338L6.27147 13.809C5.89537 13.6498 5.53475 13.4629 5.19108 13.2514L7.4453 10.9972C7.52177 10.9207 7.61847 10.8674 7.7241 10.8424L16.9305 8.71259L1.53125 5.14946C1.61248 4.74629 1.73061 4.37792 1.88503 4.04199L17.2385 7.59441Z" fill="#7FB6CC"/>
<path d="M31.5558 10.9977L33.8091 13.2514C33.4654 13.4635 33.1039 13.6498 32.7278 13.8081L30.8536 11.9338L22.5076 10.003H22.5071C22.1378 9.25859 21.8822 8.44866 21.7632 7.59441L37.1151 4.04199C37.269 4.37792 37.3877 4.74629 37.468 5.14946L22.07 8.71259L31.277 10.8424C31.3826 10.8674 31.4793 10.9207 31.5558 10.9977Z" fill="#7FB6CC"/>
<path d="M21.6845 7.03768C21.6319 7.03768 21.5789 7.03054 21.5256 7.01536C20.2126 6.64195 18.787 6.64224 17.4751 7.01536C17.1672 7.10314 16.847 6.92431 16.7595 6.61665C16.6721 6.30899 16.8506 5.98884 17.1582 5.90106C18.6766 5.46933 20.3233 5.46903 21.8425 5.90106C22.1502 5.98884 22.3287 6.30899 22.2412 6.61665C22.1689 6.87135 21.9369 7.03768 21.6845 7.03768Z" fill="#515A5E"/>
<path d="M29.6382 15.0098C24.9331 15.0098 21.1055 11.1821 21.1055 6.477C21.1055 2.36073 23.9762 0.273438 29.6382 0.273438C30.0947 0.273438 30.5389 0.286827 30.9582 0.313309C35.7448 0.614129 38.1719 2.68803 38.1719 6.477C38.1719 8.5155 37.4414 10.4885 36.1152 12.0328C34.8037 13.5604 32.9922 14.5783 31.0144 14.8988C30.5618 14.9726 30.0988 15.0098 29.6382 15.0098ZM29.6382 1.43179C27.3102 1.43179 25.5178 1.79629 24.3104 2.51516C22.9333 3.3352 22.2638 4.63102 22.2638 6.477C22.2638 10.5433 25.572 13.8514 29.6382 13.8514C30.0366 13.8514 30.4374 13.8193 30.8287 13.7556C32.5372 13.4786 34.1026 12.5987 35.2366 11.2782C36.3824 9.94373 37.0135 8.23878 37.0135 6.477C37.0135 4.79913 36.4643 3.58276 35.3345 2.75766C34.3312 2.0254 32.8342 1.59187 30.8856 1.46928C30.4901 1.44429 30.0706 1.43179 29.6382 1.43179Z" fill="#515A5E"/>
<path d="M9.36196 15.0098C4.65685 15.0098 0.828613 11.1818 0.828613 6.47671C0.828613 2.36043 3.69964 0.273438 9.36196 0.273438C15.0243 0.273438 17.8953 2.36043 17.8953 6.47671C17.8953 11.1818 14.0674 15.0098 9.36196 15.0098ZM9.36196 1.43179C7.03395 1.43179 5.24123 1.79628 4.03409 2.51486C2.65674 3.3349 1.98726 4.63072 1.98726 6.47671C1.98726 10.543 5.29539 13.8514 9.36196 13.8514C13.4285 13.8514 16.737 10.5433 16.737 6.47671C16.737 4.63072 16.0675 3.3349 14.6901 2.51486C13.4827 1.79628 11.69 1.43179 9.36196 1.43179Z" fill="#515A5E"/>
</svg>
