<svg width="30" height="30" viewBox="0 0 30 30" fill="none" xmlns="http://www.w3.org/2000/svg">
<path d="M27.2931 15.291H2.70654V25.6685H27.2931V15.291Z" fill="#424242"/>
<path d="M4.79461 9.63256H4.13338C4.13338 9.62945 4.13338 9.62635 4.13338 9.62324C4.13338 5.10227 2.7068 1.88477 2.7068 1.88477C2.7068 1.88477 1.28016 5.10227 1.28016 9.6233C1.28016 9.62641 1.28016 9.62951 1.28016 9.63262H0.618926V12.844H0V28.1149H5.41354V12.844H4.79461V9.63256Z" fill="#FFAC00"/>
<path d="M2.70674 1.88477C2.70674 1.88477 1.28016 5.10215 1.28016 9.62324C1.28016 9.62635 1.28016 9.62945 1.28016 9.63256H0.618926V12.844H0V28.1148H2.70674V1.88477Z" fill="#FFD68B"/>
<path d="M12.9899 9.63256H12.3286C12.3286 9.62945 12.3286 9.62635 12.3286 9.62324C12.3286 5.10227 10.9021 1.88477 10.9021 1.88477C10.9021 1.88477 9.47547 5.10215 9.47547 9.62324C9.47547 9.62635 9.47547 9.62945 9.47547 9.63256H8.81424V12.844H8.19531V28.1148H13.6088V12.844H12.9899V9.63262H12.9899V9.63256Z" fill="#FFAC00"/>
<path d="M21.1857 9.63256H20.5244C20.5244 9.62945 20.5244 9.62635 20.5244 9.62324C20.5244 5.10227 19.0979 1.88477 19.0979 1.88477C19.0979 1.88477 17.6713 5.10215 17.6713 9.62324C17.6713 9.62635 17.6713 9.62945 17.6713 9.63256H17.01V12.844H16.3911V28.1148H21.8047V12.844H21.1857V9.63262H21.1857V9.63256Z" fill="#FFAC00"/>
<path d="M29.381 12.844V9.63256H28.7197C28.7197 9.62946 28.7197 9.62635 28.7197 9.62325C28.7197 5.10227 27.2932 1.88477 27.2932 1.88477C27.2932 1.88477 25.8666 5.10215 25.8666 9.62325C25.8666 9.62635 25.8666 9.62946 25.8666 9.63256H25.2054V12.844H24.5864V28.1149H29.9999V12.844H29.381Z" fill="#FFAC00"/>
<path d="M12.9899 9.63256H12.3286C12.3286 9.62945 12.3286 9.62635 12.3286 9.62324C12.3286 5.10227 10.9021 1.88477 10.9021 1.88477C10.9021 1.88477 9.47547 5.10215 9.47547 9.62324C9.47547 9.62635 9.47547 9.62945 9.47547 9.63256H8.81424V12.844H8.19531V28.1148H13.6088V12.844H12.9899V9.63262H12.9899V9.63256Z" fill="#FFAC00"/>
<path d="M21.1857 9.63256H20.5244C20.5244 9.62945 20.5244 9.62635 20.5244 9.62324C20.5244 5.10227 19.0979 1.88477 19.0979 1.88477C19.0979 1.88477 17.6713 5.10215 17.6713 9.62324C17.6713 9.62635 17.6713 9.62945 17.6713 9.63256H17.01V12.844H16.3911V28.1148H21.8047V12.844H21.1857V9.63262H21.1857V9.63256Z" fill="#FFAC00"/>
<path d="M29.381 12.844V9.63256H28.7197C28.7197 9.62946 28.7197 9.62635 28.7197 9.62325C28.7197 5.10227 27.2932 1.88477 27.2932 1.88477C27.2932 1.88477 25.8666 5.10215 25.8666 9.62325C25.8666 9.62635 25.8666 9.62946 25.8666 9.63256H25.2054V12.844H24.5864V28.1149H29.9999V12.844H29.381Z" fill="#FFAC00"/>
<path d="M4.79465 9.63281H0.619141V12.844H4.79465V9.63281Z" fill="#DB6D00"/>
<path d="M12.99 9.63281H8.81445V12.844H12.99V9.63281Z" fill="#DB6D00"/>
<path d="M21.1858 9.63281H17.0103V12.844H21.1858V9.63281Z" fill="#DB6D00"/>
<path d="M29.3811 9.63281H25.2056V12.844H29.3811V9.63281Z" fill="#DB6D00"/>
<path d="M10.9021 1.88477C10.9021 1.88477 9.47547 5.10215 9.47547 9.62324C9.47547 9.62635 9.47547 9.62945 9.47547 9.63256H8.81424V12.844H8.19531V28.1148H10.9021V1.88477Z" fill="#FFD68B"/>
<path d="M19.0974 1.88477C19.0974 1.88477 17.6708 5.10215 17.6708 9.62324C17.6708 9.62635 17.6708 9.62945 17.6708 9.63256H17.0096V12.844H16.3906V28.1148H19.0974V1.88477Z" fill="#FFD68B"/>
<path d="M27.2932 1.88477C27.2932 1.88477 25.8666 5.10215 25.8666 9.62324C25.8666 9.62635 25.8666 9.62945 25.8666 9.63256H25.2054V12.844H24.5864V28.1148H27.2932V1.88477Z" fill="#FFD68B"/>
<path d="M2.70689 9.63281H0.619141V12.844H2.70689V9.63281Z" fill="#FFAC00"/>
<path d="M10.9022 9.63281H8.81445V12.844H10.9022V9.63281Z" fill="#FFAC00"/>
<path d="M19.098 9.63281H17.0103V12.844H19.098V9.63281Z" fill="#FFAC00"/>
<path d="M27.2933 9.63281H25.2056V12.844H27.2933V9.63281Z" fill="#FFAC00"/>
</svg>
