<svg width="36" height="38" viewBox="0 0 36 38" fill="none" xmlns="http://www.w3.org/2000/svg">
<path d="M0.906972 13.0272L6.15679 20.1302L10.4125 17.3511L12.1099 16.2424L6.15679 11.5916L4.98842 10.0109C4.49093 9.33775 3.72323 8.98145 2.94596 8.98145C2.4215 8.98145 1.89327 9.14322 1.43984 9.47865C1.116 9.71812 0.865804 10.0193 0.693013 10.3551C0.263936 11.1863 0.313512 12.2245 0.906972 13.0272Z" fill="#343C3F"/>
<path d="M0.906972 13.0266L6.15679 20.1296L10.4125 17.3504L7.64261 16.4943L3.62552 11.2222C3.12803 10.5487 2.36033 10.1924 1.58248 10.1924C1.2827 10.1924 0.981191 10.246 0.693013 10.3544C0.263936 11.1856 0.313512 12.2238 0.906972 13.0266Z" fill="#515A5E"/>
<path d="M15.2828 0.601868C15.7873 0.601868 16.2428 0.806549 16.5735 1.13647C16.9038 1.46727 17.1082 1.92302 17.1082 2.42747V3.03021C17.1082 2.02217 17.9249 1.2049 18.9338 1.2049C19.4379 1.2049 19.8937 1.40929 20.2236 1.7395C20.5538 2.0703 20.7582 2.52576 20.7582 3.03021V29.5188H6.15625V2.42747C6.15625 1.41943 6.97353 0.601868 7.98157 0.601868C8.48573 0.601868 8.94148 0.806549 9.27228 1.13647C9.6022 1.46727 9.80688 1.92302 9.80688 2.42747V1.82532C9.80688 0.816696 10.6242 0 11.6322 0C12.1367 0 12.5921 0.204681 12.9229 0.534607C13.2531 0.864533 13.4575 1.32086 13.4575 1.82532V2.42747C13.4575 1.41943 14.2751 0.601868 15.2828 0.601868Z" fill="#515A5E"/>
<path d="M15.2827 0.601562C15.5237 0.601562 15.7536 0.648239 15.9643 0.733475C15.7344 0.825668 15.5274 0.964249 15.3555 1.13617C15.0253 1.46696 14.8209 1.92271 14.8209 2.42717V10.9794C14.8209 11.3557 14.5156 11.6607 14.1396 11.6607C13.7633 11.6607 13.458 11.3557 13.458 10.9794V2.42717C13.458 1.92271 13.6627 1.46696 13.9926 1.13617C14.3228 0.806244 14.7783 0.601562 15.2827 0.601562Z" fill="#343C3F"/>
<path d="M18.9331 1.20508C19.1741 1.20508 19.4043 1.25146 19.615 1.3367C19.3848 1.42889 19.1778 1.56747 19.0059 1.73969C18.676 2.07048 18.4713 2.52594 18.4713 3.0304V11.5827C18.4713 11.959 18.1663 12.264 17.79 12.264C17.4137 12.264 17.1084 11.959 17.1084 11.5827V3.0304C17.1084 2.52594 17.3131 2.07048 17.643 1.73969C17.9732 1.40947 18.4287 1.20508 18.9331 1.20508Z" fill="#343C3F"/>
<path d="M11.6316 0C11.8725 0 12.1027 0.0463867 12.3135 0.131622C12.0833 0.223816 11.8766 0.362686 11.7046 0.534607C11.3744 0.865402 11.17 1.32086 11.17 1.82532V11.2186C11.17 11.5949 10.8647 11.9002 10.4884 11.9002C10.1121 11.9002 9.80713 11.5949 9.80713 11.2186V1.82532C9.80713 1.32086 10.0115 0.865402 10.3417 0.534607C10.6717 0.204681 11.1274 0 11.6316 0Z" fill="#343C3F"/>
<path d="M35.132 21.5077L29.8822 28.611L25.6265 25.8318L23.9287 24.7232L29.8822 20.072L31.0505 18.4917C31.548 17.8182 32.3157 17.4619 33.0927 17.4619C33.6174 17.4619 34.1457 17.624 34.5991 17.9594C34.9229 18.1986 35.1731 18.5001 35.3459 18.8355C35.775 19.667 35.7254 20.7052 35.132 21.5077Z" fill="#343C3F"/>
<path d="M35.132 21.5078L29.8822 28.611L25.6265 25.8319L28.396 24.9758L32.4134 19.7033C32.9106 19.0301 33.6786 18.6738 34.4565 18.6738C34.7562 18.6738 35.0578 18.7272 35.3459 18.8356C35.775 19.6671 35.7254 20.7053 35.132 21.5078Z" fill="#515A5E"/>
<path d="M7.9807 0.601562C8.22162 0.601562 8.45181 0.648239 8.66258 0.733475C8.43239 0.825668 8.22568 0.964249 8.05347 1.13617C7.72354 1.46696 7.51886 1.92271 7.51886 2.42717V28.9157H6.15625V2.42717C6.15625 1.92271 6.36064 1.46696 6.69086 1.13617C7.02078 0.806244 7.47624 0.601562 7.9807 0.601562Z" fill="#343C3F"/>
<path d="M22.5815 10.9089V10.3068C22.5815 9.80231 22.7861 9.34598 23.1161 9.01605C23.4469 8.68613 23.9026 8.48145 24.4068 8.48145C25.4148 8.48145 26.2321 9.29814 26.2321 10.3068V10.9089C26.2321 10.4045 26.4368 9.94901 26.7667 9.61792C27.0978 9.28799 27.5532 9.0836 28.0577 9.0836C29.0654 9.0836 29.883 9.90088 29.883 10.9089V38.0002H15.2808V11.5117C15.2808 11.0072 15.4854 10.5517 15.8154 10.2209C16.1456 9.89073 16.601 9.68634 17.1055 9.68634C18.1141 9.68634 18.9308 10.5036 18.9308 11.5117V10.9089C18.9308 10.4045 19.1352 9.94901 19.4654 9.61792C19.7962 9.28799 20.2517 9.0836 20.7561 9.0836C21.7642 9.0836 22.5815 9.90088 22.5815 10.9089Z" fill="#515A5E"/>
<path d="M24.4058 8.48145C24.6467 8.48145 24.8766 8.52783 25.0874 8.61307C24.8575 8.70526 24.6505 8.84413 24.4786 9.01605C24.1483 9.34685 23.944 9.80231 23.944 10.3068V19.7004C23.944 20.0764 23.639 20.3817 23.2626 20.3817C22.8863 20.3817 22.5811 20.0764 22.5811 19.7004V10.3068C22.5811 9.80231 22.7857 9.34685 23.1157 9.01605C23.4459 8.68613 23.9013 8.48145 24.4058 8.48145Z" fill="#343C3F"/>
<path d="M17.1055 9.68652C17.3464 9.68652 17.5766 9.73291 17.7871 9.81815C17.5572 9.91034 17.3502 10.0489 17.1783 10.2211C16.8483 10.5519 16.6437 11.0074 16.6437 11.5118V38.0004H15.2808V11.5118C15.2808 11.0074 15.4854 10.5519 15.8154 10.2211C16.1456 9.89091 16.601 9.68652 17.1055 9.68652Z" fill="#343C3F"/>
<path d="M20.7551 9.08301C20.996 9.08301 21.2262 9.12939 21.437 9.21463C21.2068 9.30682 21.0001 9.4454 20.8282 9.61732C20.498 9.94841 20.2936 10.4039 20.2936 10.9083V19.4606C20.2936 19.8369 19.9883 20.1419 19.612 20.1419C19.2357 20.1419 18.9307 19.8369 18.9307 19.4606V10.9083C18.9307 10.4039 19.1351 9.94841 19.4653 9.61732C19.7952 9.2874 20.2509 9.08301 20.7551 9.08301Z" fill="#343C3F"/>
<path d="M28.0567 9.08301C28.2976 9.08301 28.5278 9.12939 28.7386 9.21463C28.5084 9.30682 28.3014 9.4454 28.1294 9.61732C27.7995 9.94841 27.5948 10.4039 27.5948 10.9083V19.4606C27.5948 19.8369 27.2898 20.1419 26.9135 20.1419C26.5372 20.1419 26.2319 19.8369 26.2319 19.4606V10.9083C26.2319 10.4039 26.4366 9.94841 26.7665 9.61732C27.0968 9.2874 27.5522 9.08301 28.0567 9.08301Z" fill="#343C3F"/>
</svg>
