<svg width="27" height="33" viewBox="0 0 27 33" fill="none" xmlns="http://www.w3.org/2000/svg">
<path d="M21.6029 16.4145C21.4433 16.3309 21.2505 16.3432 21.1027 16.4459L18.6718 18.1368C18.5419 18.2272 18.4644 18.3758 18.4644 18.5341V25.7917C18.4644 26.7287 19.2267 27.4909 20.1636 27.4909C21.1004 27.4909 21.8628 26.7287 21.8628 25.7917V16.8432C21.8628 16.6632 21.7626 16.4978 21.6029 16.4145Z" fill="#FFEBA1"/>
<path d="M16.2035 20.1703C16.0437 20.0867 15.851 20.0991 15.703 20.2018L13.2724 21.8927C13.1422 21.9831 13.0649 22.1316 13.0649 22.29V24.7656C13.0649 25.7025 13.8271 26.4648 14.7641 26.4648C15.701 26.4648 16.4634 25.7025 16.4634 24.7656V20.5991C16.4634 20.4188 16.3632 20.2537 16.2035 20.1703Z" fill="#FFEBA1"/>
<path d="M7.18105 26.4466C7.02118 26.3632 6.82857 26.3753 6.68053 26.4783L4.24994 28.1689C4.12003 28.2596 4.04248 28.4079 4.04248 28.5662V31.3015C4.04248 32.2383 4.80459 33.0007 5.74168 33.0007C6.67852 33.0007 7.44088 32.2383 7.44088 31.3015V26.8756C7.44088 26.6953 7.34068 26.5302 7.18105 26.4466Z" fill="#FFEBA1"/>
<path d="M21.6023 16.4145C21.4427 16.3309 21.2498 16.3432 21.1021 16.4459L20.163 17.0993V25.7917C20.163 26.4193 19.8208 26.9682 19.3135 27.2622C19.5635 27.4075 19.8535 27.4909 20.163 27.4909C21.0998 27.4909 21.8622 26.7287 21.8622 25.7917V16.8432C21.8622 16.6632 21.762 16.4978 21.6023 16.4145Z" fill="#F7D36F"/>
<path d="M16.2036 20.1703C16.0438 20.0867 15.8512 20.0991 15.7031 20.2018L14.7643 20.8551V24.7656C14.7643 25.3933 14.4219 25.9419 13.9146 26.2362C14.1648 26.3813 14.4549 26.4648 14.7643 26.4648C15.7011 26.4648 16.4635 25.7027 16.4635 24.7656V20.5991C16.4635 20.4188 16.3633 20.2537 16.2036 20.1703Z" fill="#F7D36F"/>
<path d="M7.1807 26.4456C7.02083 26.3623 6.82822 26.3743 6.68018 26.4773L5.74133 27.1304V31.3005C5.74133 31.9279 5.39892 32.4768 4.8916 32.7711C5.14186 32.9161 5.4319 32.9994 5.74133 32.9994C6.67817 32.9994 7.44053 32.2373 7.44053 31.3005V26.8744C7.44053 26.6943 7.34032 26.5292 7.1807 26.4456Z" fill="#F7D36F"/>
<path d="M24.1159 14.939C24.0522 14.8476 24.0043 14.7484 23.9741 14.6449C23.9704 14.6328 23.6028 13.407 22.3321 11.6629C21.1296 10.0128 18.8833 7.61875 15.0109 5.58495C11.1381 3.55115 7.8923 3.0607 5.85119 3.00758C3.69528 2.95068 2.47646 3.34419 2.46438 3.34822C2.36291 3.38146 2.25591 3.39832 2.14589 3.39832C2.14362 3.39832 2.1411 3.39832 2.13934 3.39832C2.01169 3.39832 1.88908 3.44868 1.7987 3.53856C1.7073 3.62895 1.65594 3.75181 1.65544 3.88021L1.54541 30.3005C1.54466 30.481 1.64436 30.6469 1.80423 30.731C1.87498 30.768 1.95228 30.7864 2.02907 30.7864C2.12625 30.7864 2.22293 30.7572 2.30551 30.6998L23.9948 15.6125C24.2141 15.4599 24.2685 15.1583 24.1159 14.939Z" fill="#FFDB57"/>
<path d="M1.80423 30.7311C1.87498 30.7684 1.95202 30.7865 2.02907 30.7865C2.12625 30.7865 2.22293 30.7573 2.30551 30.6999L23.9948 15.6126C24.2141 15.46 24.2682 15.1584 24.1157 14.9391C24.0522 14.8477 24.0044 14.7485 23.9739 14.645C23.9716 14.637 23.8012 14.0702 23.2964 13.1631L1.55397 28.2379L1.54541 30.3009C1.54466 30.4811 1.64436 30.6473 1.80423 30.7311Z" fill="#F6C134"/>
<path d="M9.87932 10.3047C8.20605 10.3047 6.84473 11.666 6.84473 13.339C6.84473 15.0123 8.20605 16.3734 9.87932 16.3734C11.5526 16.3734 12.9137 15.0123 12.9137 13.339C12.9137 11.6658 11.5526 10.3047 9.87932 10.3047Z" fill="#F2433B"/>
<path d="M9.87932 14.2418C8.58119 14.2418 7.47113 13.422 7.03859 12.2734C6.91371 12.6053 6.84473 12.9643 6.84473 13.3394C6.84473 15.0127 8.20605 16.3738 9.87907 16.3738C11.5523 16.3738 12.9137 15.0127 12.9137 13.3394C12.9137 12.9645 12.8447 12.6053 12.7198 12.2734C12.2873 13.422 11.1774 14.2418 9.87932 14.2418Z" fill="#D83636"/>
<path d="M4.1995 15.2604C3.64359 14.6916 2.89986 14.3673 2.10527 14.3477C1.97561 14.3459 1.84947 14.3938 1.75607 14.4842C1.66291 14.5748 1.61004 14.6992 1.60954 14.8293L1.58839 19.9277C1.58763 20.0579 1.6395 20.1825 1.73215 20.2739C1.82279 20.3635 1.94489 20.4136 2.07204 20.4136H2.08009C3.72516 20.3862 5.06332 19.0254 5.06332 17.3803C5.06332 16.5832 4.75642 15.8301 4.1995 15.2604Z" fill="#F2433B"/>
<path d="M2.08034 18.2505C2.07757 18.2507 2.07506 18.2507 2.07229 18.2507C1.94514 18.2507 1.82303 18.2006 1.73214 18.111C1.6619 18.0415 1.61507 17.9526 1.59694 17.8569L1.58838 19.927C1.58788 20.0572 1.63974 20.1818 1.73214 20.2732C1.82278 20.3628 1.94489 20.4129 2.07229 20.4129H2.08034C3.72516 20.3855 5.06332 19.0246 5.06332 17.3796C5.06332 17.0027 4.99408 16.6361 4.86291 16.2939C4.43112 17.4173 3.347 18.2296 2.08034 18.2505Z" fill="#D83636"/>
<path d="M16.9396 15.2178C15.2663 15.2178 13.9053 16.5791 13.9053 18.2521C13.9053 19.4838 14.6407 20.5843 15.7787 21.0561C15.8384 21.0808 15.9013 21.0928 15.964 21.0928C16.0614 21.0928 16.1579 21.0636 16.2402 21.0062L19.7642 18.555C19.8992 18.4608 19.9775 18.3047 19.9714 18.1401C19.9118 16.5013 18.5799 15.2178 16.9396 15.2178Z" fill="#F2433B"/>
<path d="M20.9183 9.97151C19.9711 8.97123 18.8754 8.0354 17.6612 7.1902C17.5448 7.10938 17.3996 7.0837 17.2628 7.11895C15.927 7.4664 14.9941 8.67414 14.9941 10.0556C14.9941 11.7289 16.3555 13.0902 18.0285 13.0902C19.5993 13.0902 20.8977 11.9124 21.0485 10.3507C21.0618 10.2112 21.0145 10.073 20.9183 9.97151Z" fill="#F2433B"/>
<path d="M20.5213 9.56532C19.9724 10.3554 19.0592 10.8622 18.0285 10.8622C16.748 10.8622 15.651 10.0646 15.2061 8.94043C15.0689 9.28787 14.9941 9.66477 14.9941 10.0555C14.9941 11.7288 16.3555 13.0899 18.0285 13.0899C19.5993 13.0899 20.8977 11.9123 21.0485 10.3503C21.0618 10.2111 21.0145 10.0729 20.9183 9.97118C20.7889 9.83472 20.6562 9.69952 20.5213 9.56532Z" fill="#D83636"/>
<path d="M10.6397 4.03972C10.5949 3.87456 10.4665 3.74565 10.3016 3.69983C8.77609 3.27786 7.27881 3.04498 5.85076 3.00771C5.74804 3.00494 5.64809 3.00368 5.5499 3.00293C5.54864 3.00293 5.54738 3.00293 5.54612 3.00293C5.37945 3.00293 5.22411 3.08878 5.13574 3.23053C4.83537 3.71166 4.67676 4.26657 4.67676 4.83481C4.67676 6.50808 6.03808 7.86915 7.7111 7.86915C9.38436 7.86915 10.7457 6.50808 10.7457 4.83481C10.7457 4.56668 10.7099 4.2993 10.6397 4.03972Z" fill="#F2433B"/>
<path d="M10.4995 3.81049C10.0344 4.89059 8.95988 5.64892 7.7111 5.64892C6.42934 5.64892 5.33136 4.84955 4.88749 3.72363C4.74902 4.07561 4.67676 4.45175 4.67676 4.83444C4.67676 6.50771 6.03808 7.86904 7.7111 7.86904C9.38437 7.86904 10.7454 6.50771 10.7454 4.83444C10.7454 4.56656 10.7099 4.29893 10.6394 4.03935C10.6153 3.94972 10.5657 3.87117 10.4995 3.81049Z" fill="#D83636"/>
<path d="M11.9079 23.5568C11.4366 22.4176 10.3359 21.6816 9.10344 21.6816C7.43017 21.6816 6.06885 23.0427 6.06885 24.716C6.06885 25.5576 6.42359 26.3691 7.04169 26.9419C7.13409 27.0272 7.25192 27.0708 7.37075 27.0708C7.46693 27.0708 7.56336 27.0423 7.64695 26.9842L11.7372 24.1389C11.9238 24.0093 11.9948 23.7671 11.9079 23.5568Z" fill="#F2433B"/>
<path d="M26.8587 13.7973C26.7824 13.5372 24.8921 7.38089 16.4145 2.92606C16.4112 2.9243 16.4082 2.92254 16.4049 2.92103C7.92405 -1.53128 1.78186 0.40735 1.52455 0.491945C0.483729 0.834353 -0.0845168 1.96002 0.257891 3.00084C0.423808 3.50514 0.776035 3.91451 1.24987 4.1537C1.7237 4.39313 2.26249 4.43341 2.76099 4.26926C2.77207 4.26573 3.89648 3.92484 5.8258 3.97494C7.76418 4.02555 10.8529 4.49459 14.5607 6.44179C18.2686 8.38898 20.4078 10.6657 21.5496 12.2328C22.6861 13.7925 23.0434 14.9121 23.0451 14.9174C23.1949 15.4267 23.5338 15.8472 23.9999 16.1015C24.2962 16.2634 24.621 16.3454 24.9493 16.3454C25.1374 16.3454 25.3267 16.3185 25.5122 16.2639C26.0216 16.1143 26.442 15.7752 26.6966 15.3091C26.9506 14.8434 27.0083 14.3063 26.8587 13.7973Z" fill="#FF9F34"/>
<path d="M25.7003 14.7793C25.6983 14.7728 25.2723 13.4387 23.9182 11.5801C22.5574 9.7127 20.008 6.99962 15.5897 4.67905C11.1711 2.35873 7.49048 1.7998 5.18073 1.73938C2.88131 1.67971 1.54164 2.08607 1.5283 2.09035C1.08644 2.23562 0.61815 2.24619 0.175034 2.12459C0.137521 2.4106 0.16169 2.7092 0.257867 3.001C0.423783 3.5053 0.77601 3.91468 1.24984 4.15386C1.72367 4.39329 2.26246 4.43358 2.76097 4.26942C2.77205 4.2659 3.89645 3.925 5.82577 3.9751C7.76415 4.02571 10.8529 4.49476 14.5607 6.44195C18.2685 8.38914 20.4078 10.6659 21.5496 12.2329C22.6861 13.7926 23.0433 14.9123 23.0451 14.9176C23.1949 15.4269 23.5338 15.8473 23.9998 16.1016C24.2961 16.2635 24.6209 16.3456 24.9492 16.3456C25.1373 16.3456 25.3266 16.3187 25.5122 16.264C25.8173 16.1744 26.0905 16.0163 26.3153 15.8038C26.0286 15.5241 25.8163 15.1744 25.7003 14.7793Z" fill="#FB8F2D"/>
<path d="M15.779 21.0568C15.8387 21.0814 15.9016 21.0935 15.9643 21.0935C16.0617 21.0935 16.1582 21.0643 16.2405 21.0069L19.7645 18.5557C19.8995 18.4615 19.9778 18.3054 19.9717 18.1407C19.9423 17.3346 19.6047 16.6148 19.0742 16.0908L14.1689 19.492C14.4786 20.1861 15.0449 20.7524 15.779 21.0568Z" fill="#D83636"/>
<path d="M7.04193 26.9417C7.13408 27.027 7.25216 27.0706 7.37074 27.0706C7.46692 27.0706 7.5636 27.0421 7.64694 26.984L11.7372 24.1387C11.9238 24.0091 11.9948 23.7666 11.9079 23.5566C11.6289 22.8821 11.1292 22.3491 10.5121 22.0264L6.09326 25.0902C6.18163 25.7944 6.51598 26.4545 7.04193 26.9417Z" fill="#D83636"/>
</svg>
