<svg width="34" height="34" viewBox="0 0 34 34" fill="none" xmlns="http://www.w3.org/2000/svg">
<path d="M28.2812 22.3438V3.9375C28.2812 2.62591 27.2178 1.5625 25.9062 1.5625H29.4688C30.7803 1.5625 31.8438 2.62591 31.8438 3.9375V22.3438C31.8438 23.3276 31.0463 24.125 30.0625 24.125C29.0787 24.125 28.2812 23.3276 28.2812 22.3438Z" fill="#353744"/>
<path d="M31.25 24.1249H30.0625C29.8529 24.1249 29.6552 24.0821 29.4688 24.0156V26.4999C29.4688 28.2532 28.511 29.7845 27.0938 30.6068V31.2499C27.0938 32.5615 26.0303 33.6249 24.7188 33.6249C28.6476 33.6249 31.8438 30.4287 31.8438 26.4999V24.0156C31.6573 24.0821 31.4596 24.1249 31.25 24.1249Z" fill="#808080"/>
<path d="M29.4688 0.375C27.5011 0.375 25.9062 1.96981 25.9062 3.9375V12.25H27.0938V3.9375C27.0938 2.62591 28.1572 1.5625 29.4688 1.5625C30.7803 1.5625 31.8438 2.62591 31.8438 3.9375V22.3438C31.8438 23.3276 31.0463 24.125 30.0625 24.125H31.25C32.2338 24.125 33.0312 23.3276 33.0312 22.3438V3.9375C33.0312 1.96981 31.4364 0.375 29.4688 0.375Z" fill="#353744"/>
<path d="M18.7812 12.25V3.9375C18.7812 2.62591 17.7178 1.5625 16.4062 1.5625H19.9688C21.2803 1.5625 22.3438 2.62591 22.3438 3.9375V12.25H18.7812Z" fill="#353744"/>
<path d="M19.9688 0.375H16.4062C14.4386 0.375 12.8438 1.96981 12.8438 3.9375V12.25H16.4062V3.9375C16.4062 1.96981 18.0011 0.375 19.9688 0.375Z" fill="#55525B"/>
<path d="M19.9688 0.375C18.0011 0.375 16.4062 1.96981 16.4062 3.9375V12.25H17.5938V3.9375C17.5938 2.62591 18.6572 1.5625 19.9688 1.5625C21.2803 1.5625 22.3438 2.62591 22.3438 3.9375V12.25H23.5312V3.9375C23.5312 1.96981 21.9364 0.375 19.9688 0.375Z" fill="#353744"/>
<path d="M28.2812 22.3438V3.9375C28.2812 2.62591 27.2178 1.5625 25.9062 1.5625H29.4688C30.7803 1.5625 31.8438 2.62591 31.8438 3.9375V22.3438C31.8438 23.3276 31.0463 24.125 30.0625 24.125C29.0787 24.125 28.2812 23.3276 28.2812 22.3438Z" fill="#353744"/>
<path d="M29.4688 0.375H25.9062C23.9386 0.375 22.3438 1.96981 22.3438 3.9375V12.25H25.9062V3.9375C25.9062 1.96981 27.5011 0.375 29.4688 0.375Z" fill="#55525B"/>
<path d="M17.5938 2.75H11.6562C6.40928 2.75 2.15625 7.00303 2.15625 12.25V31.25C2.15625 32.5616 3.21966 33.625 4.53125 33.625H24.7188C26.0303 33.625 27.0938 32.5616 27.0938 31.25V12.25C27.0938 7.00303 22.8407 2.75 17.5938 2.75Z" fill="#5C76B2"/>
<path d="M11.6562 2.75C6.40928 2.75 2.15625 7.00303 2.15625 12.25V31.25C2.15625 32.5616 3.21966 33.625 4.53125 33.625H18.7812C20.0928 33.625 21.1562 32.5616 21.1562 31.25V12.25C21.1562 7.00303 16.9032 2.75 11.6562 2.75Z" fill="#6FA4D8"/>
<path d="M16.4062 15.8125H3.34375C2.03216 15.8125 0.96875 16.8759 0.96875 18.1875V28.875C0.96875 30.1866 2.03216 31.25 3.34375 31.25H16.4062C17.7178 31.25 18.7812 30.1866 18.7812 28.875V18.1875C18.7812 16.8759 17.7178 15.8125 16.4062 15.8125Z" fill="#F68820"/>
<path d="M12.8438 15.8125H3.34375C2.03216 15.8125 0.96875 16.8759 0.96875 18.1875V28.875C0.96875 30.1866 2.03216 31.25 3.34375 31.25H12.8438C14.1553 31.25 15.2188 30.1866 15.2188 28.875V18.1875C15.2188 16.8759 14.1553 15.8125 12.8438 15.8125Z" fill="#FBBE18"/>
<path d="M0.96875 19.375H15.2188V20.5625H0.96875V19.375Z" fill="#F68820"/>
<path d="M15.5156 9.875H7.5C7.17225 9.875 6.90625 9.609 6.90625 9.28125C6.90625 8.9535 7.17225 8.6875 7.5 8.6875H15.5156C15.8434 8.6875 16.1094 8.9535 16.1094 9.28125C16.1094 9.609 15.8434 9.875 15.5156 9.875Z" fill="#DBDEE3"/>
<path d="M23.5312 12.25V14.0312C23.5312 14.359 23.7972 14.625 24.125 14.625C24.4528 14.625 24.7188 14.359 24.7188 14.0312V12.25C24.7188 7.00303 20.4657 2.75 15.2188 2.75H14.0312C19.2782 2.75 23.5312 7.00303 23.5312 12.25Z" fill="#55525B"/>
</svg>
