<svg width="33" height="33" viewBox="0 0 33 33" fill="none" xmlns="http://www.w3.org/2000/svg">
<path d="M33.0002 26.6728C33.0002 26.6728 32.2492 27.5746 30.8547 27.8264C30.3131 27.9236 29.6754 27.9228 28.9472 27.7343L28.3453 25.559L28.0658 24.5489L24.7827 12.6817V30.6402C24.7827 30.6402 22.8808 32.6486 17.0055 32.7583C16.8404 32.7616 16.6722 32.7631 16.5002 32.7631C16.3285 32.7631 16.1603 32.7616 15.9952 32.7583C13.5505 32.7125 11.7934 32.3386 10.5751 31.9164C8.86581 31.3253 8.21751 30.6402 8.21751 30.6402V12.6817L4.93417 24.5489L4.65471 25.559L4.05273 27.7343C2.85581 28.0447 1.90362 27.846 1.22409 27.5404C0.423462 27.1806 0.000488281 26.6728 0.000488281 26.6728C0.0342255 25.9273 0.0853347 25.1891 0.151299 24.4597V24.4592C0.189064 24.0335 0.232872 23.6113 0.280708 23.1931C1.31448 14.1321 4.43869 6.89249 4.43869 6.89249C6.72703 4.60415 10.2964 3.3171 10.3805 3.28689C10.3812 3.28613 10.382 3.28613 10.382 3.28613H22.6188C22.6188 3.28613 22.868 3.37501 23.2774 3.54747C24.4297 4.03288 26.8523 5.18322 28.5615 6.89249C28.5615 6.89249 31.6857 14.1316 32.72 23.1923C32.7679 23.6105 32.8109 24.033 32.8494 24.4585C32.9154 25.1879 32.9665 25.9266 33.0002 26.6728Z" fill="#CCE6F6"/>
<path d="M16.9893 3.2867H22.6186C22.6186 3.2867 22.54 3.24113 22.9497 3.41359C22.3696 4.68151 20.9204 6.00179 19.3423 6.34243C19.1343 6.38725 18.9709 6.54939 18.7592 6.52849L18.0769 7.26215" fill="#9DCAE0"/>
<path d="M16.4998 5.17403L17.8065 7.07943C17.9361 7.26825 18.1874 7.32843 18.3883 7.2184L19.3941 6.66854L16.499 3.80566L16.4998 5.17403Z" fill="#9DCAE0"/>
<path d="M17.0055 3.80583V32.7589C16.8403 32.7622 16.6721 32.7637 16.5002 32.7637C16.3285 32.7637 16.1603 32.7622 15.9951 32.7589V3.80583C15.9951 3.52712 16.2207 3.30078 16.5002 3.30078C16.7791 3.30078 17.0055 3.52712 17.0055 3.80583Z" fill="#9DCAE0"/>
<path d="M12.2982 3.28613C12.0734 4.3904 11.3095 5.30835 10.2644 5.73006C7.49847 6.84566 5.30228 8.37793 4.58498 12.1288C3.72972 16.6045 1.2236 27.5404 1.2236 27.5404C0.422974 27.1806 0 26.6728 0 26.6728C0.48214 16.0592 4.4382 6.89249 4.4382 6.89249C6.75423 4.57645 10.3815 3.28613 10.3815 3.28613H12.2982Z" fill="#9DCAE0"/>
<path d="M10.5747 13.1825V31.9169C8.86546 31.3258 8.2169 30.6407 8.2169 30.6407V12.6822C8.2169 11.086 7.56885 9.59375 7.56885 9.59375C7.56885 9.59375 10.5747 10.0059 10.5747 13.1825Z" fill="#9DCAE0"/>
<path d="M18.8131 2.65039L18.8023 2.80875L18.5908 5.87229L18.5591 5.95714L18.192 6.93829L18.0581 7.29655L17.7524 8.11355H15.2471L15.0404 7.55991L14.7858 6.87836L14.4092 5.87229V2.65039H18.8131Z" fill="#FB6572"/>
<path d="M18.8023 2.80875L18.5908 5.87229L18.5591 5.95714L18.192 6.93829L16.4666 4.61143L14.7858 6.87836L14.4092 5.87229V2.65039H18.3516L18.8023 2.80875Z" fill="#EA394E"/>
<path d="M23.061 2.16447C23.061 3.6124 19.3945 6.66863 19.3945 6.66863L16.5006 3.8055L16.5001 3.805L16.4994 3.8055L13.6048 6.66863C13.6048 6.66863 9.93848 3.6124 9.93848 2.16447C9.93848 0.811958 12.3817 0.322517 15.7732 0.263855H15.776C16.0124 0.259827 16.2541 0.257812 16.5001 0.257812C20.2633 0.257812 23.061 0.717041 23.061 2.16447Z" fill="#CCE6F6"/>
<path d="M20.1608 2.22144C19.4174 3.17036 18.0571 3.80532 16.5006 3.80532H16.4994L13.6048 6.66845C13.6048 6.66845 9.93848 3.61221 9.93848 2.16428C9.93848 0.811775 12.3817 0.322334 15.7732 0.263672H15.776C18.8046 0.263672 20.1608 2.22144 20.1608 2.22144Z" fill="#9DCAE0"/>
<path d="M12.8379 2.22117C13.5816 1.272 14.9427 1.31077 16.4989 1.31077C18.0553 1.31077 19.4164 1.272 20.1611 2.22117V2.22092C19.4174 3.17009 18.0563 3.8048 16.5001 3.8048C14.9439 3.8048 13.5829 3.17009 12.8379 2.22092" fill="#7FB6CC"/>
<path d="M30.8569 27.8257L30.8542 27.8272C30.3126 27.9241 29.6749 27.9234 28.947 27.7348L24.7822 12.6822C24.7822 11.086 25.4308 9.59375 25.4308 9.59375L30.8569 27.8257Z" fill="#9DCAE0"/>
<path d="M31.7027 26.4365C31.2454 26.4365 31.0241 25.8436 31.3761 25.5465C31.7243 25.2527 32.2679 25.5528 32.2024 26.0055C32.1669 26.2505 31.9494 26.4365 31.7027 26.4365Z" fill="#515A5E"/>
<path d="M1.29598 26.4356C1.09859 26.4356 0.914549 26.3153 0.83499 26.135C0.744353 25.9301 0.802008 25.6823 0.975981 25.5403C1.33425 25.2483 1.87782 25.5713 1.79222 26.024C1.74766 26.2597 1.53667 26.4356 1.29598 26.4356Z" fill="#515A5E"/>
<path d="M4.93375 24.5491L4.65429 25.5592C3.46896 25.558 1.48174 25.5167 0.150879 24.46V24.4595C0.188644 24.0338 0.232452 23.6115 0.280289 23.1934L0.567055 23.4809C1.63531 24.5491 3.69001 24.5491 4.79377 24.5491H4.93375Z" fill="#9DCAE0"/>
<path d="M32.8491 24.4585C31.519 25.516 29.5307 25.5578 28.3449 25.559L28.0654 24.5489H28.2049C29.3087 24.5489 31.3641 24.5489 32.4314 23.4807L32.7196 23.1924C32.7675 23.6106 32.8105 24.033 32.8491 24.4585Z" fill="#9DCAE0"/>
<path d="M17.2331 2.26889H15.7658C15.4871 2.26889 15.2607 2.0428 15.2607 1.76384C15.2607 1.48488 15.4871 1.25879 15.7658 1.25879H17.2331C17.5121 1.25879 17.7382 1.48488 17.7382 1.76384C17.7382 2.0428 17.5121 2.26889 17.2331 2.26889Z" fill="#515A5E"/>
<path d="M18.5908 24.8759L16.4996 26.8948L14.9918 25.4381L14.4092 24.8759L14.4235 24.5876L14.5109 22.8386L14.5683 21.7003L14.6552 19.952L14.7123 18.8133L14.7999 17.0642L14.8566 15.9255L14.9439 14.1772L15.0006 13.0389L15.0882 11.2894L15.1454 10.1511L15.2234 8.58812L15.2471 8.11328H17.7524L17.7935 8.93078L17.8474 10.0179L17.9309 11.6879L17.9853 12.7756L18.0689 14.4458L18.1235 15.5329L18.2069 17.2024L18.2615 18.2901L18.3451 19.9601L18.3995 21.0472L18.4831 22.7167L18.5369 23.8043V23.8051L18.5908 24.8759Z" fill="#FB6572"/>
<path d="M17.8475 10.0178L15.0884 11.2892L15.1455 10.151L17.7936 8.93066L17.8475 10.0178Z" fill="#515A5E"/>
<path d="M18.5593 5.95703L18.0582 7.29645L16.2661 8.11344L15.2236 8.58828L15.2472 8.11344L15.0405 7.5598L18.5593 5.95703Z" fill="#515A5E"/>
<path d="M18.5369 23.8044V23.8052L14.9918 25.4382L14.4092 24.876L14.4235 24.5877L18.4831 22.7168L18.5369 23.8044Z" fill="#515A5E"/>
<path d="M18.3993 21.0471L14.5107 22.8384L14.5681 21.7002L18.3449 19.96L18.3993 21.0471Z" fill="#515A5E"/>
<path d="M18.2616 18.2898L14.6553 19.9517L14.7124 18.813L18.207 17.2021L18.2616 18.2898Z" fill="#515A5E"/>
<path d="M18.1234 15.5334L14.7998 17.0647L14.8565 15.9259L18.0688 14.4463L18.1234 15.5334Z" fill="#515A5E"/>
<path d="M17.9852 12.7761L14.9438 14.1777L15.0005 13.0395L17.9308 11.6885L17.9852 12.7761Z" fill="#515A5E"/>
<path d="M23.0662 14.4769H20.0964C19.8174 14.4769 19.5913 14.2508 19.5913 13.9718C19.5913 13.6929 19.8174 13.4668 20.0964 13.4668H23.0662C23.3452 13.4668 23.5713 13.6929 23.5713 13.9718C23.5713 14.2508 23.3452 14.4769 23.0662 14.4769Z" fill="#9DCAE0"/>
</svg>
