<svg width="36" height="40" viewBox="0 0 36 40" fill="none" xmlns="http://www.w3.org/2000/svg">
<path d="M27.3538 0.0209263C20.7512 3.3689 18.9564 11.5561 18.459 15.8266H20.8906C21.7328 6.78616 25.688 2.0696 27.5576 0.313973C27.709 0.171786 27.5391 -0.0730581 27.3538 0.0209263Z" fill="#04A550"/>
<path d="M23.2593 6.52357C23.511 5.97068 23.7713 5.4542 24.0356 4.97279C24.2223 4.63248 24.1463 4.20865 23.8516 3.95592L23.8398 3.94576C23.4649 3.6242 22.9228 3.68967 22.6288 4.08662C22.2501 4.59826 21.9043 5.12935 21.5887 5.67287C21.2819 6.20107 21.5642 6.87638 22.1544 7.03396C22.1608 7.03568 22.1672 7.0374 22.1737 7.03912C22.6129 7.15662 23.071 6.9374 23.2593 6.52357Z" fill="#0CC166"/>
<path d="M29.2107 4.68496C24.589 7.02847 22.3238 11.7431 21.2095 15.8262H23.5225C25.009 9.77683 27.8978 6.40238 29.4145 4.97808C29.5659 4.8359 29.3959 4.59105 29.2107 4.68496Z" fill="#0CC166"/>
<path d="M31.8089 8.40286C26.8101 9.0006 23.1322 12.4637 20.6821 15.8266H23.411C26.6713 11.432 30.1264 9.50552 31.8996 8.7481C32.0907 8.66645 32.0151 8.37817 31.8089 8.40286Z" fill="#04A550"/>
<path d="M28.3564 9.32306C27.4239 9.71455 26.551 10.2037 25.7367 10.7619C25.3563 11.0227 25.2601 11.5433 25.518 11.9256C25.5213 11.9306 25.5248 11.9357 25.5281 11.9407C25.813 12.3631 26.4062 12.4386 26.7856 12.0986C27.5377 11.4245 28.2641 10.8645 28.94 10.4003C29.209 10.2156 29.285 9.85275 29.1129 9.57548L29.1071 9.56603C28.9497 9.31267 28.6314 9.20767 28.3564 9.32306Z" fill="#0CC166"/>
<path d="M30.7363 3.22433C23.7451 4.72933 19.9442 11.7428 18.2808 15.8268H20.863C23.9926 8.04542 28.698 4.73097 30.8588 3.55956C31.0414 3.46058 30.9394 3.18058 30.7363 3.22433Z" fill="#29E088"/>
<path d="M27.2206 4.54831C25.927 5.26245 24.7796 6.16995 23.7666 7.17987C23.4186 7.52682 23.4079 8.08643 23.7362 8.45197C23.7406 8.4569 23.745 8.46182 23.7494 8.46674C24.1274 8.88783 24.7929 8.87229 25.1516 8.43455C26.1078 7.26768 27.058 6.33276 27.9333 5.59026C28.1722 5.3876 28.2242 5.04003 28.0566 4.77534L28.0505 4.76565C27.8738 4.48667 27.5097 4.3887 27.2206 4.54831Z" fill="#79FF79"/>
<path d="M34.8636 13.7804L34.8637 13.7802C34.8637 13.7802 34.6492 13.2693 34.7122 12.6566C34.7357 12.427 34.5105 12.2505 34.2932 12.3282C33.7133 12.5357 33.1659 12.4494 33.1659 12.4494L33.1657 12.4495C31.2048 12.0151 29.0795 12.6993 27.7581 14.3851C26.187 16.3895 26.2611 19.1576 27.7829 21.0653C29.9988 22.0873 32.7045 21.4982 34.2756 19.4938C35.597 17.808 35.7536 15.5808 34.8636 13.7804Z" fill="#29E088"/>
<path d="M30.6672 15.1594C30.904 15.1307 31.1193 15.2994 31.148 15.5363L31.2905 16.7119L30.5367 17.6736L30.2903 15.6402C30.2616 15.4033 30.4304 15.1881 30.6672 15.1594Z" fill="#0CC166"/>
<path d="M34.2759 19.4933C32.7038 21.499 29.9977 22.088 27.7834 21.066C27.3755 20.5559 27.0734 19.984 26.877 19.3826C29.3412 20.6624 32.4456 20.0483 34.2206 17.7839C34.8033 17.0405 35.1799 16.1998 35.3552 15.332C35.5818 16.7557 35.2363 18.268 34.2759 19.4933Z" fill="#0CC166"/>
<path d="M33.9434 15.4328C33.9148 15.1959 33.6995 15.0272 33.4627 15.0559L32.287 15.1983L31.5332 16.16L33.5666 15.9136C33.8034 15.8849 33.9721 15.6697 33.9434 15.4328Z" fill="#0CC166"/>
<path d="M27.5962 21.303C27.4084 21.1559 27.3755 20.8844 27.5227 20.6966L32.9589 13.7612C33.1061 13.5734 33.3776 13.5405 33.5654 13.6877C33.7532 13.8349 33.7861 14.1064 33.6389 14.2942L28.2027 21.2295C28.0555 21.4173 27.784 21.4502 27.5962 21.303Z" fill="#04A550"/>
<path d="M30.8927 19.3254C30.864 19.0885 30.6487 18.9198 30.4119 18.9485L29.2362 19.0909L28.4824 20.0526L30.5158 19.8062C30.7527 19.7775 30.9213 19.5623 30.8927 19.3254Z" fill="#04A550"/>
<path d="M32.418 17.3791C32.3894 17.1422 32.1741 16.9735 31.9373 17.0022L30.7616 17.1446L30.0078 18.1063L32.0412 17.8599C32.278 17.8311 32.4467 17.6159 32.418 17.3791Z" fill="#04A550"/>
<path d="M29.1418 17.1057C29.3787 17.077 29.5939 17.2457 29.6226 17.4826L29.7651 18.6582L29.0113 19.6199L28.7649 17.5865C28.7362 17.3496 28.905 17.1344 29.1418 17.1057Z" fill="#04A550"/>
<path d="M27.6843 18.9525C27.6902 18.9514 27.6962 18.9502 27.7021 18.9492C28.145 18.8654 28.4645 18.4635 28.4259 18.0144C28.3504 17.1367 28.6009 16.2369 29.1797 15.4985C29.8287 14.6704 30.8127 14.1821 31.8414 14.1352C32.2799 14.1152 32.6486 13.7974 32.705 13.3621C32.7061 13.3538 32.7072 13.3455 32.7083 13.3372C32.7784 12.7958 32.3542 12.3068 31.8086 12.3257C31.2693 12.3444 30.7342 12.4436 30.2229 12.6216C29.2798 12.9495 28.4189 13.5413 27.7582 14.3842C26.8814 15.5028 26.5172 16.8585 26.6304 18.1698C26.6754 18.6894 27.1719 19.0494 27.6843 18.9525Z" fill="#79FF79"/>
<path d="M26.7452 10.442V10.4417C26.7452 10.4417 26.2322 10.2321 25.8436 9.75438C25.698 9.57532 25.4138 9.60977 25.3151 9.81844C25.0518 10.3752 24.6037 10.7012 24.6037 10.7012V10.7014C22.9099 11.7809 21.8909 13.7674 22.1485 15.8939C22.4549 18.4222 24.4646 20.3271 26.8896 20.6C29.1792 19.7559 30.6758 17.426 30.3695 14.8977C30.1118 12.7713 28.6477 11.0856 26.7452 10.442Z" fill="#79FF79"/>
<path d="M30.3683 14.8971C30.6748 17.427 29.1778 19.757 26.8894 20.6001C26.2403 20.5277 25.6222 20.337 25.0581 20.0506C27.7055 19.2131 29.4665 16.5837 29.1204 13.7275C29.0068 12.7898 28.6787 11.929 28.189 11.1914C29.3559 12.0379 30.181 13.3516 30.3683 14.8971Z" fill="#29E088"/>
<path d="M27.2623 12.261C27.0745 12.1137 26.803 12.1467 26.6559 12.3345L25.9253 13.2665L26.0722 14.4795L27.3358 12.8675C27.483 12.6797 27.4501 12.4082 27.2623 12.261Z" fill="#29E088"/>
<path d="M24.7522 14.3843C24.8993 14.1965 25.1708 14.1636 25.3586 14.3108L26.2907 15.0413L26.4376 16.2543L24.8256 14.9908C24.6379 14.8435 24.605 14.572 24.7522 14.3843Z" fill="#29E088"/>
<path d="M25.0495 16.8394C25.1967 16.6516 25.4682 16.6187 25.6559 16.7659L26.5881 17.4964L26.735 18.7094L25.123 17.4458C24.9353 17.2987 24.9024 17.0272 25.0495 16.8394Z" fill="#29E088"/>
<path d="M26.9254 20.9008C26.6885 20.9294 26.4733 20.7608 26.4446 20.5239L25.3845 11.7759C25.3559 11.5391 25.5245 11.3238 25.7614 11.2952C25.9983 11.2665 26.2135 11.4352 26.2423 11.672L27.3023 20.4201C27.331 20.6569 27.1623 20.8721 26.9254 20.9008Z" fill="#0CC166"/>
<path d="M27.857 17.1702C27.6692 17.0229 27.3977 17.0559 27.2506 17.2437L26.52 18.1757L26.667 19.3887L27.9306 17.7767C28.0777 17.5889 28.0448 17.3174 27.857 17.1702Z" fill="#0CC166"/>
<path d="M27.5597 14.7151C27.3719 14.5678 27.1004 14.6008 26.9533 14.7886L26.2227 15.7207L26.3696 16.9336L27.6332 15.3216C27.7803 15.1338 27.7474 14.8623 27.5597 14.7151Z" fill="#0CC166"/>
<path d="M25.3254 19.1752C25.3289 19.1702 25.3322 19.1652 25.3357 19.1602C25.5896 18.7877 25.5314 18.2776 25.1865 17.9873C24.5125 17.4201 24.0534 16.6067 23.9405 15.6753C23.814 14.6309 24.1645 13.5898 24.8586 12.8292C25.1546 12.5049 25.1906 12.0196 24.9227 11.6718C24.9176 11.6652 24.9125 11.6586 24.9074 11.6519C24.5742 11.2195 23.9285 11.1737 23.556 11.5729C23.1879 11.9674 22.8796 12.4159 22.644 12.9033C22.209 13.802 22.0187 14.8293 22.1476 15.8926C22.3185 17.3035 23.0196 18.5196 24.0269 19.3668C24.426 19.7025 25.0317 19.6059 25.3254 19.1752Z" fill="#C2FFC2"/>
<path d="M12.4556 15.3862C12.2973 14.7624 11.9748 14.1719 11.4868 13.6838C10.081 12.2781 7.82563 12.2407 6.37414 13.5708C5.12 12.4374 3.18367 12.4751 1.97485 13.6838C0.766019 14.8926 0.728441 16.829 1.8618 18.0831C0.531722 19.5346 0.569066 21.79 1.97485 23.1958C2.46289 23.6838 3.05352 24.0063 3.67719 24.1646C3.49352 25.4767 3.90586 26.8563 4.91485 27.8653C6.62219 29.5726 9.39023 29.5726 11.0976 27.8653L16.1562 22.8067C17.8635 21.0993 17.8635 18.3312 16.1562 16.6239C15.1472 15.6148 13.7677 15.2025 12.4556 15.3862Z" fill="#29E088"/>
<path d="M16.1564 22.8067L11.0972 27.8658C9.38988 29.5723 6.62191 29.5723 4.91457 27.8658C3.90527 26.8565 3.49324 25.4766 3.67676 24.165C3.05332 24.0067 2.46238 23.6838 1.9748 23.1962C1.42066 22.6421 1.07973 21.9575 0.950195 21.2406C3.50762 20.1089 5.29238 17.5496 5.29238 14.573C5.29238 13.9847 5.22309 13.4126 5.0909 12.8647C5.55504 12.9933 5.99496 13.229 6.37371 13.5709C7.82559 12.2404 10.0808 12.2782 11.4868 13.6842C11.9744 14.1718 12.2973 14.7627 12.4557 15.3862C13.7672 15.2027 15.1471 15.6147 16.1564 16.624C17.8629 18.3313 17.8629 21.0993 16.1564 22.8067Z" fill="#0CC166"/>
<path d="M20.4949 13.4922C20.7448 12.8992 20.8438 12.2336 20.7489 11.5499C20.4755 9.58078 18.6991 8.19071 16.7391 8.37617C16.4224 6.71571 14.8551 5.57789 13.1619 5.81297C11.4687 6.04805 10.2707 7.56985 10.4184 9.25383C8.48197 9.60938 7.1515 11.4309 7.42493 13.4001C7.51986 14.0838 7.79642 14.6972 8.19845 15.1996C7.26056 16.1355 6.75743 17.4845 6.95368 18.8979C7.28579 21.2895 9.49368 22.959 11.8853 22.627L18.9713 21.6431C21.3629 21.3109 23.0324 19.103 22.7004 16.7114C22.504 15.298 21.6523 14.1371 20.4949 13.4922Z" fill="#79FF79"/>
<path d="M18.9714 21.6429L11.8855 22.6271C9.49356 22.959 7.28606 21.2894 6.95411 18.8984C6.82731 17.9844 6.99278 17.0966 7.38052 16.3301C11.3647 14.8314 14.1983 10.9849 14.1983 6.47723C14.1983 6.26137 14.192 6.04723 14.1786 5.83496C15.4461 6.06707 16.4877 7.05566 16.7396 8.37621C18.6997 8.1909 20.4754 9.58074 20.7489 11.5499C20.8442 12.2336 20.7453 12.8993 20.4953 13.4929C21.653 14.137 22.504 15.2983 22.701 16.7115C23.0328 19.1035 21.3632 21.311 18.9714 21.6429Z" fill="#29E088"/>
<path d="M18.9712 21.6424L11.8853 22.6266C11.8799 22.6275 11.8745 22.6284 11.8691 22.6284C15.6194 21.0199 18.2461 17.293 18.2461 12.9536C18.2461 11.3074 17.8683 9.74937 17.1936 8.36133C18.9675 8.41078 20.4958 9.73312 20.7487 11.5494C20.844 12.233 20.7451 12.8987 20.495 13.4924C21.6527 14.1365 22.5037 15.2978 22.7007 16.711C23.0326 19.103 21.363 21.3105 18.9712 21.6424Z" fill="#0CC166"/>
<path d="M8.97398 25.906C11.4535 25.906 13.4636 23.8959 13.4636 21.4164C13.4636 18.9368 11.4535 16.9268 8.97398 16.9268C6.49444 16.9268 4.48438 18.9368 4.48438 21.4164C4.48438 23.8959 6.49444 25.906 8.97398 25.906Z" fill="#EF4343"/>
<path d="M7.82813 24.4199C9.65002 24.4199 11.127 22.943 11.127 21.1211C11.127 19.2992 9.65002 17.8223 7.82813 17.8223C6.00623 17.8223 4.5293 19.2992 4.5293 21.1211C4.5293 22.943 6.00623 24.4199 7.82813 24.4199Z" fill="#F75E5E"/>
<path d="M6.81451 22.1349C7.85358 22.1349 8.69592 21.2925 8.69592 20.2535C8.69592 19.2144 7.85358 18.3721 6.81451 18.3721C5.77544 18.3721 4.93311 19.2144 4.93311 20.2535C4.93311 21.2925 5.77544 22.1349 6.81451 22.1349Z" fill="#FC9595"/>
<path d="M21.5396 23.1271C18.501 26.6791 14.9559 26.5211 12.3346 24.2786C9.71338 22.0361 9.00846 18.5582 12.0471 15.0063C15.0858 11.4543 20.7174 9.17336 23.3386 11.4159C25.9599 13.6584 24.5783 19.5752 21.5396 23.1271Z" fill="#FFFDF3"/>
<path d="M21.5394 23.1268C18.5009 26.6784 14.9557 26.5209 12.3344 24.2784C11.8076 23.8277 11.3583 23.3272 11.0015 22.7865C14.7528 23.2587 18.6611 21.8958 21.303 18.8075C22.9415 16.8923 23.8487 14.5988 24.0517 12.2656C25.6413 14.9116 24.2491 19.9593 21.5394 23.1268Z" fill="#FFF7C7"/>
<path d="M18.8766 22.2366C20.3799 20.4789 20.3582 17.9933 18.8283 16.6848C17.2984 15.3763 14.8395 15.7404 13.3362 17.4981C11.8329 19.2558 11.8545 21.7414 13.3845 23.0499C14.9144 24.3584 17.3733 23.9943 18.8766 22.2366Z" fill="#FFE059"/>
<path d="M18.8754 22.2406C17.3716 23.9984 14.9129 24.3618 13.3831 23.053C12.5795 22.3655 12.1922 21.3531 12.224 20.2926C12.3355 20.4103 12.4548 20.5239 12.581 20.6319C14.5504 22.3168 17.5112 22.0862 19.196 20.1168C19.523 19.7345 19.7777 19.3146 19.9614 18.874C20.0949 19.9967 19.7334 21.2376 18.8754 22.2406Z" fill="#FFC751"/>
<path d="M17.2622 18.5182C17.3706 18.611 17.4538 18.7393 17.5076 18.8919C17.6571 19.3156 18.0153 19.6309 18.4603 19.6927L18.4842 19.696C19.3623 19.8178 20.0804 18.9769 19.7974 18.1368C19.6106 17.5823 19.287 17.0825 18.8271 16.6889C17.2973 15.3802 14.8392 15.7441 13.3359 17.5013C13.1149 17.7596 12.9269 18.0337 12.7718 18.3174C12.3307 19.1246 12.9137 20.1092 13.8335 20.1057C14.2645 20.104 14.6696 19.875 14.8719 19.4944C14.9492 19.3489 15.0463 19.2048 15.165 19.0661C15.8468 18.2693 16.8177 18.1378 17.2622 18.5182Z" fill="#FFF370"/>
<path d="M17.3559 17.5372C17.3634 17.5141 17.3709 17.4911 17.3785 17.468C17.6486 16.6462 16.9638 15.8232 16.107 15.9422C15.702 15.9984 15.2971 16.1184 14.9082 16.2998C14.2176 16.6219 14.016 17.511 14.4981 18.1011C14.5122 18.1183 14.5262 18.1354 14.5403 18.1526C14.8759 18.5622 15.4465 18.7048 15.9267 18.4816C16.0849 18.408 16.2435 18.3594 16.396 18.3346C16.8409 18.2621 17.2156 17.9655 17.3559 17.5372Z" fill="#FFF7C7"/>
<path d="M25.2938 24.363C27.7734 24.363 29.7834 22.3529 29.7834 19.8734C29.7834 17.3939 27.7734 15.3838 25.2938 15.3838C22.8143 15.3838 20.8042 17.3939 20.8042 19.8734C20.8042 22.3529 22.8143 24.363 25.2938 24.363Z" fill="#EF4343"/>
<path d="M24.1479 22.877C25.9698 22.877 27.4468 21.4 27.4468 19.5781C27.4468 17.7562 25.9698 16.2793 24.1479 16.2793C22.3261 16.2793 20.8491 17.7562 20.8491 19.5781C20.8491 21.4 22.3261 22.877 24.1479 22.877Z" fill="#F75E5E"/>
<path d="M23.1343 20.5919C24.1734 20.5919 25.0157 19.7496 25.0157 18.7105C25.0157 17.6714 24.1734 16.8291 23.1343 16.8291C22.0953 16.8291 21.2529 17.6714 21.2529 18.7105C21.2529 19.7496 22.0953 20.5919 23.1343 20.5919Z" fill="#FC9595"/>
<path d="M29.9304 25.0327C31.9725 25.0327 33.6279 23.3773 33.6279 21.3352C33.6279 19.2931 31.9725 17.6377 29.9304 17.6377C27.8883 17.6377 26.2329 19.2931 26.2329 21.3352C26.2329 23.3773 27.8883 25.0327 29.9304 25.0327Z" fill="#EF4343"/>
<path d="M30.0156 23.0811C31.5161 23.0811 32.7324 21.8647 32.7324 20.3643C32.7324 18.8638 31.5161 17.6475 30.0156 17.6475C28.5152 17.6475 27.2988 18.8638 27.2988 20.3643C27.2988 21.8647 28.5152 23.0811 30.0156 23.0811Z" fill="#F75E5E"/>
<path d="M30.5831 20.9729C31.4389 20.9729 32.1326 20.2792 32.1326 19.4235C32.1326 18.5677 31.4389 17.874 30.5831 17.874C29.7274 17.874 29.0337 18.5677 29.0337 19.4235C29.0337 20.2792 29.7274 20.9729 30.5831 20.9729Z" fill="#FC9595"/>
<path d="M22.8727 40.0004H12.7179C12.2211 40.0004 11.8184 39.5977 11.8184 39.1009V36.7178H23.7723V39.1009C23.7722 39.5977 23.3695 40.0004 22.8727 40.0004Z" fill="#E8E4D8"/>
<path d="M23.7722 36.7178H11.8184V38.6521H20.5616C21.3347 38.6521 21.527 39.7385 20.7966 39.9921C20.7887 39.9948 20.7807 39.9976 20.7727 40.0003H22.8723C23.3698 40.0003 23.7719 39.5973 23.7719 39.1007L23.7722 36.7178Z" fill="#D8D4C9"/>
<path d="M0.584116 23.4072C1.33177 29.4687 5.20685 34.5609 10.5451 37.0211C11.039 37.2487 11.578 37.3618 12.1219 37.3618H23.469C24.0128 37.3618 24.5519 37.2487 25.0458 37.0211C30.384 34.5609 34.259 29.4687 35.0067 23.4072C35.0731 22.8688 34.6565 22.3926 34.114 22.3926H1.47677C0.934351 22.3927 0.51771 22.8688 0.584116 23.4072Z" fill="#F1EEE0"/>
<path d="M35.0064 23.4073C34.2588 29.4694 30.3836 34.561 25.0456 37.0213C24.5517 37.2489 24.0129 37.3622 23.4686 37.3622H20.7637C26.207 34.5835 29.9338 28.9235 29.9338 22.3936H34.1141C34.6565 22.3935 35.073 22.8693 35.0064 23.4073Z" fill="#E8E4D8"/>
<path d="M16.1116 25.234H3.32695C2.54227 25.234 1.90625 24.5979 1.90625 23.8133C1.90625 23.0286 2.54234 22.3926 3.32695 22.3926H16.1115C16.8962 22.3926 17.5322 23.0287 17.5322 23.8133C17.5323 24.5979 16.8962 25.234 16.1116 25.234Z" fill="#F9F8F2"/>
<path d="M10.3216 22.3926H7.50037C6.71568 22.3926 6.07959 23.0287 6.07959 23.8134C6.07959 24.598 6.71568 25.2341 7.50037 25.2341H10.3216C11.1063 25.2341 11.7424 24.598 11.7424 23.8134C11.7424 23.0287 11.1063 22.3926 10.3216 22.3926Z" fill="white"/>
<path d="M8.82735 12.9953C9.23212 12.9549 9.5947 12.7056 9.75126 12.3301C9.93345 11.8931 10.3255 11.557 10.8249 11.4653L10.8255 11.4653C11.9663 11.2557 12.7606 10.2128 12.6591 9.05721C12.6345 8.77729 12.7352 8.51447 12.9159 8.32494C13.151 8.07838 13.2686 7.74315 13.2262 7.4051C13.2253 7.3976 13.2243 7.39018 13.2234 7.38268C13.1082 6.46549 11.9836 6.07065 11.3331 6.72729C10.6922 7.37416 10.3336 8.28705 10.4182 9.25338C9.15173 9.48588 8.14508 10.346 7.67696 11.4644C7.35243 12.2397 7.9686 13.0813 8.80493 12.9976L8.82735 12.9953Z" fill="#C2FFC2"/>
<path d="M2.83566 17.0063C3.14355 16.7802 3.32816 16.4121 3.29199 16.0318C3.26621 15.7607 3.35769 15.4811 3.56465 15.2736C3.61269 15.2258 3.66222 15.186 3.71199 15.153C4.0259 14.9449 4.20105 14.5807 4.19871 14.2041C4.19863 14.1962 4.19863 14.1882 4.19855 14.1803C4.19316 13.3249 3.24949 12.7843 2.52676 13.242C2.33097 13.366 2.14574 13.5133 1.97511 13.6841C1.28074 14.3779 0.973005 15.312 1.05152 16.2191C1.12636 17.0834 2.11832 17.5331 2.81754 17.0196L2.83566 17.0063Z" fill="#79FF79"/>
</svg>
