<svg width="38" height="28" viewBox="0 0 38 28" fill="none" xmlns="http://www.w3.org/2000/svg">
<path d="M3.90052 23.4937C9.09271 28.6859 19.0007 27.1962 19.0007 27.1962L12.0831 17.2226L0.198041 8.39355C0.198041 8.39355 -1.29168 18.3015 3.90052 23.4937Z" fill="#5A781E"/>
<path d="M0.198242 8.39337L19.0009 27.196C19.0009 27.196 20.4906 17.288 15.2984 12.0958C10.1062 6.90358 0.198242 8.39337 0.198242 8.39337Z" fill="#355E16"/>
<path d="M34.0997 23.4937C28.9075 28.6859 18.9995 27.1962 18.9995 27.1962L25.9171 17.2226L37.8021 8.39355C37.8021 8.39355 39.2919 18.3015 34.0997 23.4937Z" fill="#9EBC2C"/>
<path d="M37.802 8.39337L18.9993 27.196C18.9993 27.196 17.5096 17.288 22.7018 12.0958C27.894 6.90358 37.802 8.39337 37.802 8.39337Z" fill="#D0E95A"/>
<path d="M10.9404 13.9009C10.9404 21.2438 18.9998 27.1964 18.9998 27.1964L21.1608 15.2525L18.9998 0.605469C18.9998 0.605469 10.9404 6.55803 10.9404 13.9009Z" fill="#9EBC2C"/>
<path d="M19 0.605469V27.1964C19 27.1964 27.0594 21.2438 27.0594 13.9009C27.0594 6.55803 19 0.605469 19 0.605469Z" fill="#5A781E"/>
</svg>
