<svg width="38" height="38" viewBox="0 0 38 38" fill="none" xmlns="http://www.w3.org/2000/svg">
<path d="M6.58372 18.9268C5.39014 18.9268 4.78218 20.3636 4.78218 20.3636C3.37695 19.8241 2.42139 19.0532 1.78792 18.3475C0.940201 17.4021 0.667969 16.5747 0.667969 16.5747C1.20924 15.6362 1.72269 13.4531 1.72269 13.4531L3.18213 15.0964L6.58372 18.9268Z" fill="#FEE372"/>
<path d="M3.18213 15.0964C3.1946 15.3773 3.10153 15.6417 2.86641 15.8765C2.12509 16.6179 1.8575 17.5479 1.78792 18.3475C0.940201 17.4021 0.667969 16.5747 0.667969 16.5747C1.20924 15.6362 1.72269 13.4531 1.72269 13.4531L3.18213 15.0964Z" fill="#EABE32"/>
<path d="M37.4148 16.5747C37.4148 16.5747 36.9121 18.1063 35.1392 19.3805C34.6353 19.7426 34.028 20.0838 33.3006 20.3636C33.3006 20.3636 32.6926 18.9268 31.499 18.9268L33.382 16.8063L36.3601 13.4531C36.3601 13.4531 36.8732 15.6362 37.4148 16.5747Z" fill="#FEE372"/>
<path d="M35.1392 19.3798C34.6353 19.7419 34.028 20.0832 33.3006 20.3629C33.3006 20.3629 32.6926 18.9261 31.499 18.9261L33.382 16.8057C33.6154 16.9454 33.7812 17.1663 33.7812 17.5131C33.7812 18.6785 35.1392 19.3798 35.1392 19.3798Z" fill="#EABE32"/>
<path d="M36.3602 13.4525C35.7653 15.3527 34.7749 16.6437 33.7814 17.5131C32.9447 18.246 32.1057 18.6795 31.4992 18.9262L29.7017 15.9916V35.2676C29.7017 35.2676 27.1136 37.9998 19.0414 37.9998C15.1438 37.9998 12.5247 37.3632 10.8588 36.7039C9.07379 35.9982 8.38118 35.2676 8.38118 35.2676V15.9916L6.5834 18.9262C5.61711 18.5336 4.06316 17.6674 2.86638 15.876C2.41904 15.206 2.02127 14.4055 1.72266 13.4525C2.72229 10.3809 3.51724 8.53961 3.51724 8.53961C6.49817 5.55869 11.1667 3.89746 11.1667 3.89746H26.9159C26.9159 3.89746 31.5844 5.55869 34.5656 8.53961C34.5656 8.53961 35.3606 10.3809 36.3602 13.4525Z" fill="#4695BC"/>
<path d="M19.0419 6.32765L20.724 8.78036C20.8907 9.02331 21.2142 9.10071 21.4728 8.95924L22.7676 8.25126L19.041 4.56641L19.0419 6.32765Z" fill="#0E708E"/>
<path d="M19.0415 4.56543L20.6248 6.13156V14.8871H17.458V6.13156L19.0415 4.56543Z" fill="#EABE32"/>
<path d="M19.0424 8.24255C18.7832 8.24255 18.5509 8.06396 18.4819 7.81521C18.4187 7.58705 18.5048 7.33453 18.6956 7.19363C19.1209 6.87936 19.7292 7.27655 19.6086 7.79202C19.548 8.0515 19.3097 8.24255 19.0424 8.24255Z" fill="white"/>
<path d="M19.0418 10.9222C18.7782 10.9222 18.5411 10.7372 18.4773 10.4815C18.4199 10.2516 18.5121 10.0011 18.7066 9.86483C19.1316 9.56709 19.7254 9.95906 19.6085 10.4679C19.5482 10.7297 19.3114 10.9222 19.0418 10.9222Z" fill="white"/>
<path d="M19.0418 13.6015C18.7956 13.6015 18.5715 13.4409 18.4918 13.2087C18.4089 12.9669 18.4973 12.6917 18.7066 12.5445C19.1424 12.2374 19.7451 12.6587 19.6022 13.1742C19.5332 13.4229 19.3004 13.6015 19.0418 13.6015Z" fill="white"/>
<path d="M12.9465 3.89746L12.4287 5.48969C9.80177 6.41394 4.59052 8.96376 2.86638 15.876C2.41904 15.206 2.02127 14.4055 1.72266 13.4525C2.72229 10.3809 3.51724 8.53961 3.51724 8.53961C6.49817 5.55869 11.1667 3.89746 11.1667 3.89746H12.9465Z" fill="#0E708E"/>
<path d="M19.0413 4.56561L22.7673 8.25104C22.7673 8.25104 27.4868 4.31715 27.4868 2.45415C27.4868 0.591431 23.8852 0 19.0413 0C14.1973 0 10.5957 0.591431 10.5957 2.45415C10.5957 4.31715 15.3153 8.25104 15.3153 8.25104L19.0413 4.56561Z" fill="#FEE372"/>
<path d="M27.4868 2.45415C27.4868 4.31802 22.7676 8.25191 22.7676 8.25191L19.0427 4.56677L19.0419 4.5659L19.041 4.56677L15.315 8.25191C15.315 8.25191 10.5957 4.31802 10.5957 2.45415C10.5957 0.713486 13.7407 0.0834961 18.1063 0.00782778H18.1098C18.4142 0.00260925 18.7253 0 19.0416 0C23.8858 0.000289917 27.4868 0.591431 27.4868 2.45415Z" fill="#FEE372"/>
<path d="M23.7542 2.52777C22.7971 3.74919 21.0461 4.56647 19.0427 4.56647H19.041L15.315 8.2516C15.315 8.2516 10.5957 4.31772 10.5957 2.45413C10.5957 0.713181 13.7407 0.0831909 18.1063 0.0078125H18.1098C22.0083 0.0078125 23.7542 2.52777 23.7542 2.52777Z" fill="#EABE32"/>
<path d="M14.8242 2.74293C15.6806 1.64994 17.2479 1.69459 19.0399 1.69459C20.8319 1.69459 22.3992 1.64994 23.257 2.74293V2.74264C22.4006 3.83563 20.8333 4.56651 19.0414 4.56651C17.2491 4.56651 15.6818 3.83563 14.8242 2.74264" fill="#D8A71D"/>
<path d="M10.8589 14.6548V36.7042C9.07387 35.9985 8.38126 35.2679 8.38126 35.2679V15.9911C8.38126 13.9359 7.54688 12.0166 7.54688 12.0166C7.54688 12.0166 10.8589 12.1537 10.8589 14.6548Z" fill="#0E708E"/>
<path d="M27.1786 14.7061H23.6973C23.3761 14.7061 23.1157 14.4458 23.1157 14.1245C23.1157 13.8033 23.3761 13.543 23.6973 13.543H27.1786C27.5001 13.543 27.7605 13.8033 27.7605 14.1245C27.7605 14.4458 27.5001 14.7061 27.1786 14.7061Z" fill="#FEE372"/>
<path d="M19.8864 2.42711H18.1968C17.8756 2.42711 17.6152 2.16676 17.6152 1.84554C17.6152 1.52431 17.8756 1.26367 18.1968 1.26367H19.8864C20.2077 1.26367 20.468 1.52431 20.468 1.84554C20.468 2.16676 20.2077 2.42711 19.8864 2.42711Z" fill="#0E708E"/>
<path d="M33.7814 17.5134C32.9447 18.2463 32.1057 18.6798 31.4991 18.9265L29.7017 15.9919C29.7017 13.9367 30.536 12.0166 30.536 12.0166L33.7814 17.5134Z" fill="#0E708E"/>
</svg>
