<svg width="28" height="36" viewBox="0 0 28 36" fill="none" xmlns="http://www.w3.org/2000/svg">
<path d="M25.8924 11.2965L25.1892 10.0786C24.7616 9.33805 23.8166 9.08485 23.0757 9.51277L21.8754 10.2061C21.607 10.3611 21.514 10.7051 21.6699 10.9748L23.3588 13.8956C23.463 14.0758 23.652 14.1765 23.8463 14.1765C24.0448 14.1765 24.0159 14.1652 25.3255 13.4095C26.0641 12.9839 26.3186 12.0362 25.8924 11.2965Z" fill="#9DA0DF"/>
<path d="M19.6175 3.84504L19.2116 1.41005C19.0755 0.593016 18.3755 0 17.5471 0H8.20313C7.37478 0 6.67475 0.593016 6.53862 1.41005L6.13278 3.84504C6.07568 4.18774 6.34027 4.5 6.68761 4.5H19.0626C19.41 4.5 19.6746 4.18767 19.6175 3.84504Z" fill="#595965"/>
<path d="M19.6174 3.84469L19.2117 1.40977C19.0753 0.592734 18.3756 0 17.5474 0H14.1724C15.0006 0 15.7003 0.592734 15.8367 1.40977L16.2424 3.84469C16.2999 4.18683 16.0349 4.5 15.6876 4.5H19.0626C19.4096 4.5 19.6749 4.18718 19.6174 3.84469Z" fill="#44454E"/>
<path d="M21.7786 9.54478L20.8878 4.64555C20.754 3.90937 20.1141 3.375 19.3661 3.375H6.38363C5.63564 3.375 4.99573 3.90937 4.862 4.64541L3.97114 9.54478C3.90842 9.88966 4.17357 10.208 4.52457 10.208H21.2252C21.5757 10.208 21.8414 9.89016 21.7786 9.54478Z" fill="#9DA0DF"/>
<path d="M19.0626 31.5H6.68761C6.3402 31.5 6.07568 31.8123 6.13278 32.155L6.53862 34.59C6.67482 35.407 7.37485 36 8.20313 36H17.5471C18.3754 36 19.0755 35.407 19.2116 34.59L19.6174 32.155C19.6745 31.8123 19.41 31.5 19.0626 31.5Z" fill="#595965"/>
<path d="M19.6174 32.1553L19.2117 34.5902C19.0753 35.4073 18.3756 36 17.5474 36H14.1724C15.0006 36 15.7003 35.4073 15.8367 34.5902L16.2424 32.1553C16.2999 31.8132 16.0349 31.5 15.6876 31.5H19.0626C19.4096 31.5 19.6749 31.8128 19.6174 32.1553Z" fill="#44454E"/>
<path d="M21.2252 25.792H4.52457C4.17406 25.792 3.90835 26.1098 3.97114 26.4552L4.862 31.3544C4.99573 32.0906 5.63565 32.625 6.38363 32.625H19.3661C20.1141 32.625 20.754 32.0906 20.8878 31.3546L21.7786 26.4552C21.8413 26.1103 21.5762 25.792 21.2252 25.792Z" fill="#9DA0DF"/>
<path d="M21.7786 26.455L20.8878 31.3544C20.7542 32.0906 20.1143 32.625 19.3662 32.625H16.0615C16.8096 32.625 17.4495 32.0906 17.5831 31.3544L18.4739 26.455C18.5372 26.1122 18.2727 25.792 17.9206 25.792H21.2253C21.5783 25.792 21.8417 26.1131 21.7786 26.455Z" fill="#8286C6"/>
<path d="M21.7786 9.54492L20.8878 4.64555C20.7542 3.90937 20.1143 3.375 19.3662 3.375H16.0615C16.8096 3.375 17.4495 3.90937 17.5831 4.64555L18.4739 9.54492C18.5372 9.88776 18.2727 10.208 17.9206 10.208H21.2253C21.5783 10.208 21.8417 9.88685 21.7786 9.54492Z" fill="#8286C6"/>
<path d="M25.9532 15.1875H24.4731C24.1625 15.1875 23.9106 15.4394 23.9106 15.75V20.25C23.9106 20.5606 24.1625 20.8125 24.4731 20.8125H25.9532C26.8062 20.8125 27.5001 20.1186 27.5001 19.2656V16.7344C27.5001 15.8814 26.8062 15.1875 25.9532 15.1875Z" fill="#9DA0DF"/>
<path d="M27.5 16.7344V19.2656C27.5 20.1185 26.806 20.8125 25.9531 20.8125H24.8281C25.681 20.8125 26.375 20.1185 26.375 19.2656V16.7344C26.375 15.8815 25.681 15.1875 24.8281 15.1875H25.9531C26.806 15.1875 27.5 15.8815 27.5 16.7344Z" fill="#8286C6"/>
<path d="M25.3257 22.5906L24.1269 21.8987C23.8581 21.7434 23.5143 21.8356 23.3588 22.1043L21.6698 25.0251C21.5141 25.2945 21.6069 25.6387 21.8754 25.7938L23.0757 26.4871C23.8163 26.9149 24.7613 26.662 25.1893 25.9212L25.8927 24.7029C26.3185 23.9636 26.0641 23.016 25.3257 22.5906Z" fill="#9DA0DF"/>
<path d="M25.8926 24.7032L25.1895 25.9217C24.7645 26.6575 23.8201 26.918 23.0759 26.4877C21.7727 25.735 21.8591 25.787 21.8208 25.7579C22.2499 26.0058 22.5172 26.2037 23.0035 26.2037C23.5371 26.2037 24.0579 25.9279 24.3457 25.4295L25.0488 24.211C25.4545 23.5072 25.2429 22.6128 24.5834 22.1621L25.3259 22.591C26.0641 23.0164 26.3187 23.9642 25.8926 24.7032Z" fill="#8286C6"/>
<path d="M25.8926 11.2972L25.1895 10.0787C24.7645 9.34298 23.8201 9.08247 23.0759 9.51271C21.7727 10.2655 21.8591 10.2134 21.8208 10.2426C22.2499 9.99463 22.5172 9.79677 23.0035 9.79677C23.5371 9.79677 24.0579 10.0725 24.3457 10.5709L25.0488 11.7894C25.4545 12.4933 25.2429 13.3876 24.5834 13.8383L25.3259 13.4094C26.0641 12.984 26.3187 12.0362 25.8926 11.2972Z" fill="#8286C6"/>
<path d="M12.875 30.375C19.7095 30.375 25.25 24.8345 25.25 18C25.25 11.1655 19.7095 5.625 12.875 5.625C6.04048 5.625 0.5 11.1655 0.5 18C0.5 24.8345 6.04048 30.375 12.875 30.375Z" fill="#696EAD"/>
<path d="M25.25 17.9999C25.25 25.4859 18.6294 31.2745 11.1875 30.2603C17.2161 29.4348 21.875 24.2513 21.875 17.9999C21.875 11.7484 17.2161 6.56494 11.1875 5.73947C18.614 4.72732 25.25 10.4993 25.25 17.9999Z" fill="#505795"/>
<path d="M22.125 17.5632C22.125 23.0873 17.4444 27.4378 12 27.1088C6.99312 26.8177 3 22.6515 3 17.5632C3 12.4681 6.99959 8.30827 12 8.01753C17.4554 7.68784 22.125 12.0503 22.125 17.5632Z" fill="#EDEBFD"/>
<path d="M22.4375 18.0004C22.4375 23.9152 17.0777 28.4636 11.1875 27.4138C15.658 26.615 19.0625 22.6979 19.0625 18.0004C19.0625 13.3028 15.658 9.38567 11.1875 8.58692C17.0806 7.53667 22.4375 12.0881 22.4375 18.0004Z" fill="#D2D2FC"/>
<path d="M13.4375 8.45438V10.6875C13.4375 10.9983 13.1858 11.25 12.875 11.25C12.5642 11.25 12.3125 10.9983 12.3125 10.6875V8.45438C12.6757 8.43244 13.0551 8.43132 13.4375 8.45438Z" fill="#595965"/>
<path d="M6.125 18C6.125 18.3108 5.87329 18.5625 5.5625 18.5625H3.32938C3.30758 18.2009 3.30618 17.8215 3.32938 17.4375H5.5625C5.87329 17.4375 6.125 17.6892 6.125 18Z" fill="#595965"/>
<path d="M13.4375 25.3125V27.5456C13.0743 27.5676 12.6949 27.5688 12.3125 27.5456V25.3125C12.3125 25.0017 12.5642 24.75 12.875 24.75C13.1858 24.75 13.4375 25.0017 13.4375 25.3125Z" fill="#595965"/>
<path d="M22.4206 18.5625H20.1875C19.8767 18.5625 19.625 18.3108 19.625 18C19.625 17.6892 19.8767 17.4375 20.1875 17.4375H22.4206C22.4424 17.7991 22.4438 18.1785 22.4206 18.5625Z" fill="#595965"/>
<path d="M12.4773 18.3977L9.66479 15.5852C9.44507 15.3655 9.44507 15.0094 9.66479 14.7897C9.88445 14.5701 10.2406 14.5701 10.4602 14.7897L12.8751 17.2045L16.9773 13.1022C17.1969 12.8826 17.5531 12.8826 17.7727 13.1022C17.9925 13.3219 17.9925 13.678 17.7727 13.8977L13.2727 18.3977C13.0531 18.6174 12.697 18.6173 12.4773 18.3977Z" fill="#E48C9B"/>
</svg>
