<svg width="20" height="34" viewBox="0 0 20 34" fill="none" xmlns="http://www.w3.org/2000/svg">
<path d="M0.034668 2.34473V5.27576C0.034668 5.55128 0.23984 5.82093 0.620875 6.06714V32.2413C0.620875 33.2144 4.81812 33.9999 10.0002 33.9999C15.1823 33.9999 19.3795 33.2144 19.3795 32.2413V6.06714C19.7605 5.82093 19.9657 5.55128 19.9657 5.27576V2.34473H0.034668Z" fill="#E64C3C"/>
<path d="M10.0002 4.68966C15.504 4.68966 19.9657 3.63984 19.9657 2.34483C19.9657 1.04982 15.504 0 10.0002 0C4.49638 0 0.034668 1.04982 0.034668 2.34483C0.034668 3.63984 4.49638 4.68966 10.0002 4.68966Z" fill="#ECF0F1"/>
<path d="M19.9657 2.34473V5.27576C19.9657 5.55128 19.7605 5.82093 19.3795 6.06714C17.996 6.97576 14.3205 7.62059 10.0002 7.62059C5.67984 7.62059 2.00432 6.97576 0.620875 6.06714C0.23984 5.82093 0.034668 5.55128 0.034668 5.27576V2.34473C0.034668 3.64024 4.4957 4.68955 10.0002 4.68955C15.5047 4.68955 19.9657 3.64024 19.9657 2.34473Z" fill="#BDC3C7"/>
<path d="M8.68128 20.6284C8.56759 21.7948 7.81883 22.8029 6.73507 23.2488C6.18455 23.4514 5.59228 23.5138 5.01162 23.4305C4.17872 23.3235 3.46603 22.7806 3.14162 22.006C2.78586 21.2112 2.95078 20.2797 3.55783 19.6553C3.89523 19.344 4.29773 19.1117 4.7361 18.9753C5.973 18.5474 7.60852 19.6905 8.68128 20.6284Z" fill="#F0C419"/>
<path d="M15.7976 22.1756C15.5127 22.4676 15.182 22.7112 14.8186 22.8966C13.0541 23.7877 11.0727 23.1604 9.77136 21.7008C9.42644 21.3248 9.06252 20.9668 8.68101 20.628C7.60825 19.6901 5.97274 18.547 4.73584 18.9749C6.86963 18.2363 9.46653 15.8915 10.5803 14.8246C11.0669 14.3419 11.7239 14.0702 12.4093 14.0684C13.0641 14.0735 13.7086 14.2321 14.291 14.5315C15.6084 15.2104 16.5604 16.4346 16.8938 17.8787C17.2924 19.4042 16.8782 21.0275 15.7976 22.1756Z" fill="#F3D55B"/>
<path d="M14.2911 14.5316C13.7086 14.2323 13.0642 14.0737 12.4093 14.0685C11.724 14.0704 11.0669 14.342 10.5804 14.8247C9.46659 15.8916 6.86969 18.2365 4.7359 18.9751C4.29752 19.1114 3.89502 19.3437 3.55762 19.6551C3.55176 19.5496 3.55176 19.4499 3.55176 19.3444C3.55195 16.8035 5.04427 14.4996 7.36297 13.4605C9.68168 12.4214 12.3944 12.8408 14.2911 14.5316Z" fill="#E57E25"/>
<path d="M15.7979 22.1765C14.8325 24.1497 12.9295 25.4962 10.7475 25.75C8.56546 26.0037 6.40423 25.13 5.01172 23.431C5.59238 23.5143 6.18465 23.4518 6.73517 23.2493C7.81892 22.8034 8.56768 21.7953 8.68137 20.6289C9.06288 20.9677 9.4268 21.3257 9.77172 21.7017C11.0731 23.1613 13.0545 23.7886 14.819 22.8975C15.1824 22.7121 15.513 22.4685 15.7979 22.1765Z" fill="#E57E25"/>
<path d="M4.13823 12.3106C4.78574 12.3106 5.31065 11.7857 5.31065 11.1382C5.31065 10.4907 4.78574 9.96582 4.13823 9.96582C3.49073 9.96582 2.96582 10.4907 2.96582 11.1382C2.96582 11.7857 3.49073 12.3106 4.13823 12.3106Z" fill="#F3D55B"/>
<path d="M15.8624 12.3106C16.5099 12.3106 17.0348 11.7857 17.0348 11.1382C17.0348 10.4907 16.5099 9.96582 15.8624 9.96582C15.2148 9.96582 14.6899 10.4907 14.6899 11.1382C14.6899 11.7857 15.2148 12.3106 15.8624 12.3106Z" fill="#F3D55B"/>
<path d="M10.0001 29.3103C5.20615 29.3103 3.86081 28.1039 3.72364 27.9661C3.50148 27.7361 3.50466 27.3705 3.73078 27.1444C3.9569 26.9182 4.32252 26.9151 4.55253 27.1372C4.55253 27.1372 5.73198 28.1379 10.0001 28.1379C14.2683 28.1379 15.4484 27.1355 15.4601 27.1249C15.6977 26.9138 16.0595 26.9272 16.2808 27.1554C16.4998 27.3822 16.4972 27.7425 16.2749 27.9661C16.1395 28.1039 14.7941 29.3103 10.0001 29.3103Z" fill="#C03A2B"/>
<path d="M10.0003 32.241C7.05524 32.241 6.24862 31.6607 6.06866 31.4831C5.84633 31.2532 5.84925 30.8876 6.07521 30.6613C6.30117 30.435 6.6668 30.4316 6.89697 30.6536C6.87821 30.6266 7.51835 31.0686 10.0003 31.0686C12.4976 31.0686 13.133 30.6266 13.1389 30.6219C13.2475 30.5142 13.395 30.4551 13.5479 30.4581C13.7008 30.4611 13.8459 30.5259 13.9502 30.6378C14.1741 30.8779 14.1661 31.2527 13.932 31.4831C13.7521 31.6607 12.9455 32.241 10.0003 32.241Z" fill="#C03A2B"/>
</svg>
