<svg width="34" height="34" viewBox="0 0 34 34" fill="none" xmlns="http://www.w3.org/2000/svg">
<g clip-path="url(#clip0)">
<path d="M21.6433 8.36116H12.357C12.0045 7.96583 11.8115 7.45507 11.8115 6.92979C11.8115 6.76611 11.8305 6.60009 11.8691 6.43641C11.9075 6.27481 11.9267 6.10879 11.9267 5.94304C11.9267 5.7778 11.9075 5.61204 11.8691 5.44966C11.6855 4.66835 11.9511 3.8502 12.5589 3.32647L12.5596 3.3257C12.8115 3.10858 13.0099 2.83595 13.1391 2.52908L13.1396 2.52571C13.4499 1.78746 14.1446 1.28241 14.943 1.21496H14.9479C15.2781 1.18721 15.5975 1.08319 15.8812 0.911724L15.8867 0.908352C16.571 0.494091 17.4293 0.494091 18.1142 0.908352L18.1191 0.911724C18.3585 1.05673 18.6234 1.15323 18.8988 1.19629C18.9497 1.20459 19.001 1.21081 19.0521 1.21496H19.0578C19.8558 1.28241 20.5504 1.78746 20.8604 2.52571L20.862 2.52908C20.9904 2.83595 21.1888 3.10858 21.4412 3.3257V3.32647C22.0492 3.8502 22.3156 4.66835 22.1309 5.44966C22.0928 5.61204 22.0741 5.7778 22.0741 5.94304C22.0741 6.10879 22.0928 6.27481 22.1309 6.43641C22.2933 7.12486 22.106 7.8421 21.6433 8.36116Z" fill="#0E708E"/>
<path d="M21.6435 8.36116H16.1549C15.8024 7.96583 15.6094 7.45508 15.6094 6.92979C15.6094 6.76611 15.6283 6.6001 15.667 6.43642C15.7054 6.27481 15.7245 6.10879 15.7245 5.94304C15.7245 5.7778 15.7054 5.61204 15.667 5.44966C15.4833 4.66835 15.7489 3.8502 16.3567 3.32648L16.3575 3.3257C16.6094 3.10858 16.8078 2.83595 16.937 2.52908L16.9375 2.52571C17.2477 1.78746 17.9424 1.28241 18.7409 1.21497H18.7458C18.7971 1.21082 18.8485 1.20459 18.8991 1.19629C18.9499 1.20459 19.0013 1.21082 19.0524 1.21497H19.0581C19.856 1.28241 20.5507 1.78746 20.8607 2.52571L20.8622 2.52908C20.9906 2.83595 21.1891 3.10858 21.4415 3.3257V3.32648C22.0495 3.8502 22.3159 4.66835 22.1312 5.44966C22.0931 5.61204 22.0744 5.7778 22.0744 5.94304C22.0744 6.10879 22.0931 6.27481 22.1312 6.43642C22.2936 7.12486 22.1063 7.8421 21.6435 8.36116Z" fill="#4695BC"/>
<path d="M31.875 23.3929H2.12633C1.66927 19.1421 4.43835 11.4089 11.4738 8.67149C13.087 8.04297 14.9251 7.67773 17.0005 7.67773C17.9704 7.67773 18.8892 7.75763 19.7572 7.90678C20.7468 8.07695 21.6702 8.33765 22.5307 8.67279C29.5638 11.4115 32.3316 19.1429 31.875 23.3929Z" fill="#9DCAE0"/>
<path d="M31.8748 23.3934H7.642C7.18468 19.1426 9.95403 11.4094 16.9892 8.67194C17.8475 8.33757 18.7689 8.07791 19.757 7.90723C20.7466 8.07739 21.6701 8.33809 22.5305 8.67323C29.5636 11.412 32.3314 19.1434 31.8748 23.3934Z" fill="#CCE6F6"/>
<path d="M29.4734 22.9543C29.4651 23.1457 29.3548 23.3089 29.1974 23.3927C29.1245 23.4316 29.0412 23.4531 28.9538 23.4531C28.9468 23.4531 28.9393 23.4531 28.9323 23.4523C28.8524 23.449 28.7782 23.4282 28.7123 23.3927C28.5395 23.3032 28.4251 23.1193 28.4334 22.9112C28.5035 21.1987 28.1676 19.0934 27.5126 17.1354C26.7494 14.8566 25.6016 12.8623 24.1923 11.3685C23.2104 10.3278 22.1212 9.54074 20.9332 9.01079C21.8076 9.94203 22.5791 11.2144 23.2286 12.8146C24.5692 16.1147 25.0501 19.945 25.0522 22.4282C25.0527 22.7156 24.8197 22.9493 24.5323 22.9493C24.5323 22.9493 24.5323 22.9493 24.5316 22.9493C24.2452 22.9493 24.012 22.7169 24.0112 22.4298C24.0091 20.0441 23.5492 16.3679 22.2647 13.2058C21.5516 11.4512 20.4024 9.43672 18.6982 8.59782C19.1527 9.52362 19.5329 10.9044 19.8535 12.7736C20.3967 15.9404 20.6058 19.6952 20.6203 22.1527C20.6224 22.4401 20.3905 22.6746 20.1034 22.6759H20.1C19.8139 22.6759 19.5814 22.4448 19.5794 22.1584C19.5656 19.7421 19.3602 16.0543 18.8279 12.9498C18.1973 9.27096 17.4077 8.23778 17.0225 8.19965H16.9781C16.5937 8.23778 15.8041 9.27096 15.1727 12.9498C14.6404 16.055 14.435 19.7429 14.4204 22.1584C14.4191 22.4448 14.1867 22.6759 13.9009 22.6759H13.8972C13.6101 22.6746 13.3782 22.4401 13.3797 22.1527C13.395 19.6952 13.6038 15.9412 14.147 12.7736C14.4676 10.9044 14.8479 9.52284 15.3032 8.59782C13.5981 9.43672 12.4493 11.4512 11.7364 13.2058C10.4521 16.3674 9.99145 20.0433 9.98859 22.4298C9.98859 22.5732 9.93049 22.7029 9.83606 22.7973C9.74242 22.891 9.61194 22.9493 9.46824 22.9493C9.1803 22.9493 8.94788 22.7156 8.94788 22.4282C8.95125 19.9442 9.4314 16.1147 10.772 12.8146C11.4223 11.2144 12.1937 9.94125 13.0682 9.01079C11.8801 9.54022 10.7901 10.327 9.80753 11.3685C8.39899 12.8623 7.25141 14.8566 6.488 17.1354C5.83223 19.0934 5.49709 21.1987 5.56739 22.9112C5.57569 23.1193 5.46103 23.3032 5.28827 23.3927C5.22239 23.4282 5.1482 23.449 5.0683 23.4523C4.97259 23.4565 4.8818 23.4352 4.8032 23.3927C4.64574 23.3089 4.5355 23.1457 4.5272 22.9543C4.38479 19.4903 5.74015 14.1643 9.0506 10.6546C9.8013 9.85876 10.6104 9.19678 11.4737 8.67149C13.0869 8.04271 14.925 7.67773 17.0004 7.67773C19.0772 7.67773 20.9158 8.04349 22.5306 8.67279C23.3923 9.19807 24.2 9.85928 24.9494 10.6546C28.2607 14.1643 29.615 19.4905 29.4734 22.9543Z" fill="#7FB6CC"/>
<path d="M33.9463 26.4372C33.6075 28.0714 33.2698 29.7062 32.931 31.3404C32.6501 32.6968 31.3427 33.5801 29.978 33.3435C23.6997 32.2563 17.3188 31.964 10.985 32.4665C10.9845 32.4665 10.9845 32.4665 10.9837 32.4665C8.65433 32.6511 6.33193 32.9437 4.02276 33.3435C2.6578 33.5801 1.34991 32.6968 1.0695 31.3404C0.730981 29.7062 0.392465 28.0714 0.0536892 26.4372C-0.239691 25.0199 0.699853 23.643 2.12577 23.3927C4.38151 22.9971 6.64969 22.6925 8.92437 22.4788C16.5709 21.7592 24.2896 22.0638 31.8742 23.3927C33.3009 23.643 34.2397 25.0199 33.9463 26.4372Z" fill="#4695BC"/>
<path d="M10.9837 32.4662C8.65434 32.6509 6.33194 32.9435 4.02276 33.3432C2.6578 33.5798 1.34991 32.6965 1.0695 31.3401C0.730981 29.7059 0.392465 28.0712 0.0536892 26.4369C-0.239692 25.0196 0.699853 23.6427 2.12577 23.3924C4.38151 22.9968 6.6497 22.6923 8.92438 22.4785C4.84091 22.9615 5.37164 31.9359 10.9837 32.4662Z" fill="#0E708E"/>
</g>
<defs>
<clipPath id="clip0">
<rect width="34" height="34" fill="white"/>
</clipPath>
</defs>
</svg>
