<svg width="33" height="33" viewBox="0 0 33 33" fill="none" xmlns="http://www.w3.org/2000/svg">
<g clip-path="url(#clip0)">
<path d="M29.9829 18.3729C29.9829 22.3436 27.4007 27.8312 24.2787 30.8289C22.8941 32.1602 21.4028 33.0002 19.9831 33.0002C19.0858 33.0002 18.1908 32.8561 17.4208 32.6236C16.3658 32.3043 15.2439 32.3043 14.1889 32.6236C13.419 32.8561 12.5241 33.0002 11.6267 33.0002C10.1394 33.0002 8.57243 32.0774 7.13203 30.6338C4.10002 27.5978 1.62695 22.2583 1.62695 18.3728C1.62695 12.64 5.05631 9.17643 8.28097 8.3404C9.82565 7.93989 11.618 8.1979 13.0655 8.5745C14.5624 8.96463 16.1182 9.02992 17.6342 8.77037C17.9399 8.71784 18.2432 8.65255 18.5442 8.5745C19.9918 8.1979 21.7833 7.93989 23.3287 8.3404C26.5536 9.17649 29.9829 12.6401 29.9829 18.3729Z" fill="#F94848"/>
<path d="M24.2785 30.8286C20.4471 31.5056 17.4961 31.3181 15.2725 30.7796C11.6416 29.9004 8.94045 26.8379 8.49031 23.1293C7.36283 13.841 13.4317 11.1368 13.4317 11.1368C15.2105 11.9449 17.2106 11.5134 17.2106 11.5134C15.9343 10.2378 17.6342 8.77037 17.6342 8.77037C16.1182 9.02992 14.5624 8.96463 13.0655 8.5745C11.618 8.1979 9.82572 7.93989 8.28103 8.3404C5.05625 9.17649 1.62695 12.6401 1.62695 18.3729C1.62695 24.1049 7.0086 33.0002 11.6267 33.0002C12.524 33.0002 13.419 32.8561 14.1889 32.6236C15.2439 32.3043 16.3658 32.3043 17.4208 32.6236C18.1908 32.8561 19.0857 33.0002 19.9831 33.0002C21.4027 33.0002 22.894 32.1602 24.2787 30.8289C24.2785 30.8287 24.2787 30.8289 24.2785 30.8286Z" fill="#E23D3D"/>
<path d="M31.373 0.35483C31.373 0.35483 30.5768 5.90528 26.3831 7.52086C22.3741 9.06554 18.8006 4.88937 17.3349 5.21821C17.2688 5.23174 17.2074 5.25565 17.1501 5.28988C17.1477 5.29065 17.147 5.29149 17.147 5.29149L17.1477 5.28833C17.1971 5.13867 18.8047 0.35019 22.9331 0.0364317C27.1267 -0.28216 29.4087 1.62881 31.373 0.35483Z" fill="#C7F492"/>
<path d="M31.3731 0.35483C31.3731 0.35483 28.8252 3.46012 25.2422 3.46012C22.0915 3.46012 18.2226 4.87583 17.3349 5.2182C17.2282 5.25881 17.1653 5.28427 17.1501 5.28988C17.1477 5.29065 17.147 5.29149 17.147 5.29149L17.1477 5.28833C17.1971 5.13867 18.8047 0.35019 22.9331 0.0364317C27.1268 -0.28216 29.4088 1.62881 31.3731 0.35483Z" fill="#A3E261"/>
<path d="M27.2319 15.7658C27.0753 14.1908 26.1223 12.9961 25.1031 13.0974C24.084 13.1987 23.3847 14.5576 23.5413 16.1326C23.6978 17.7076 24.6509 18.9023 25.67 18.801C26.6891 18.6997 27.3884 17.3408 27.2319 15.7658Z" fill="#FC8181"/>
<path d="M18.7743 10.7275C18.7743 11.3797 17.7504 11.9227 16.3912 12.0461C16.2018 12.0636 16.0059 12.0724 15.8052 12.0724C15.5958 12.0724 15.392 12.0628 15.1953 12.0445C13.8489 11.9163 12.8369 11.3757 12.8369 10.7275H18.7743Z" fill="#E23D3D"/>
<path d="M18.0704 5.22112L15.8927 8.5286C16.0559 9.19904 16.1969 9.93793 16.2885 10.727C16.3386 11.1529 16.3745 11.5933 16.3912 12.0455C16.2017 12.063 16.0059 12.0718 15.8052 12.0718C15.5958 12.0718 15.392 12.0622 15.1953 12.0439C15.1778 11.5917 15.1388 11.1522 15.0854 10.727C14.6953 7.63521 13.5025 5.35802 13.4882 5.33256C13.3337 5.04117 13.4444 4.67965 13.7358 4.52522C14.0272 4.36995 14.3887 4.48062 14.5432 4.77207C14.5782 4.83898 15.0169 5.67738 15.4596 7.01504L17.0736 4.56428C17.2543 4.2888 17.6254 4.21314 17.9001 4.3947C18.1755 4.57543 18.252 4.94565 18.0704 5.22112Z" fill="#B25719"/>
</g>
<defs>
<clipPath id="clip0">
<rect width="33" height="33" fill="white"/>
</clipPath>
</defs>
</svg>
